<?xml version="1.0" encoding="UTF-8"?>
<svg id="Layer_1" data-name="Layer 1" xmlns="http://www.w3.org/2000/svg" version="1.1" xmlns:xlink="http://www.w3.org/1999/xlink" viewBox="0 0 269 56">
  <defs>
    <style>
      .cls-1 {
        fill: url(#linear-gradient);
      }

      .cls-1, .cls-2, .cls-3, .cls-4 {
        stroke-width: 0px;
      }

      .cls-2 {
        fill: #f4f4f4;
      }

      .cls-3 {
        fill: #0d111f;
      }

      .cls-4 {
        fill: #ef305e;
      }

      .cls-4, .cls-5 {
        display: none;
      }
    </style>
    <linearGradient id="linear-gradient" x1="28.5" y1="1048.4" x2="48.5" y2="1054.4" gradientTransform="translate(0 -1022)" gradientUnits="userSpaceOnUse">
      <stop offset="0" stop-color="#000" stop-opacity=".2"/>
      <stop offset=".9" stop-color="#fff" stop-opacity="0"/>
    </linearGradient>
  </defs>
  <path class="cls-4" d="M61.1,2.8l15.2,47.4c.8,2.6-1.1,5.2-3.8,5.2h-11.2c-1.7,0-3.3-1.1-3.8-2.8L42.5,5.2c-.8-2.6,1.1-5.2,3.8-5.2h11c1.7,0,3.3,1.1,3.8,2.8Z"/>
  <g class="cls-5">
    <path class="cls-2" d="M46.5,37.8L35.8,3.4c-.6-2.1-2.5-3.4-4.7-3.4s-4.8,2.1-4.9,4.7l-1.3,25.7c0,.9,0,1.8.3,2.7l5.8,19.5c.5,1.7,2.1,2.9,3.8,2.9h5.4c1.7,0,3.3-1.1,3.8-2.8l2.4-7.5c.7-2.3.8-4.9,0-7.2v-.2Z"/>
    <path class="cls-1" d="M46.5,37.8L35.8,3.4c-.6-2.1-2.5-3.4-4.7-3.4s-4.8,2.1-4.9,4.7l-1.3,25.7c0,.9,0,1.8.3,2.7l5.8,19.5c.5,1.7,2.1,2.9,3.8,2.9h5.4c1.7,0,3.3-1.1,3.8-2.8l2.4-7.5c.7-2.3.8-4.9,0-7.2v-.2Z"/>
  </g>
  <path class="cls-4" d="M20.3,0h11c2.7,0,4.6,2.6,3.8,5.2l-14.9,47.8c-.5,1.7-2.1,2.8-3.8,2.8H5.4c-2.7,0-4.6-2.6-3.8-5.2L16.5,2.8c.5-1.7,2.1-2.8,3.8-2.8Z"/>
  <g>
    <path class="cls-3" d="M17.9,8.5c0,4.2-3.3,7.6-7.7,7.6h-3.3v7H1.8V.9h8.4c4.4,0,7.7,3.3,7.7,7.6ZM12.9,8.5c0-1.6-1.1-2.9-2.6-2.9h-3.3v5.7h3.3c1.5,0,2.6-1.3,2.6-2.9Z"/>
    <path class="cls-3" d="M27.4,19.2c1.3,0,2.4-.5,3-1.1l3.8,2.2c-1.5,2.2-3.9,3.2-6.9,3.2-5.4,0-8.7-3.7-8.7-8.4s3.4-8.4,8.4-8.4,8,3.6,8,8.4,0,1.3-.2,1.9h-11.2c.6,1.6,2.1,2.2,3.8,2.2h.1ZM30.3,13.5c-.5-1.8-1.9-2.5-3.3-2.5s-3,.9-3.4,2.5h6.8Z"/>
    <path class="cls-3" d="M47.1,7v5.4c-1.9-.3-4.7.5-4.7,3.6v7.1h-4.7V7.2h4.7v2.9c.7-2.1,2.8-3.1,4.7-3.1Z"/>
    <path class="cls-3" d="M66.3,15.1c0,4.7-3.4,8.4-7.6,8.4s-3.7-.7-4.7-1.9v7.8h-4.7V7.2h4.7v1.5c1-1.1,2.6-1.9,4.7-1.9,4.1,0,7.6,3.7,7.6,8.4ZM61.6,15.1c0-2.4-1.6-3.9-3.8-3.9s-3.8,1.5-3.8,3.9,1.6,3.9,3.8,3.9,3.8-1.5,3.8-3.9Z"/>
    <path class="cls-3" d="M83.9,7.2v15.8h-4.7v-1.5c-.8,1.1-2.4,1.9-4.5,1.9-3.2,0-5.8-2.3-5.8-6.5V7.2h4.7v8.9c0,1.9,1.3,2.9,2.8,2.9s3-1,3-3.2V7.2h4.7-.1Z"/>
    <path class="cls-3" d="M99.5,18.3c0,3.7-3.2,5.2-6.5,5.2s-5.5-1.1-6.8-3.8l4.1-2.3c.5,1.1,1.3,1.8,2.6,1.8s1.7-.3,1.7-1c0-1.7-7.8-.8-7.8-6.3s2.9-5.2,6.2-5.2,4.8,1.1,6.2,3.3l-4,2.2c-.5-.8-1-1.4-2.1-1.4s-1.4.3-1.4.9c0,1.8,7.8.6,7.8,6.4h-.1Z"/>
    <path class="cls-3" d="M107.4,11.8v5.6c0,1.4,1.1,1.5,3.2,1.4v4.2c-6.2.7-8-1.3-8-5.6v-5.6h-2.5v-4.6h2.5v-3l4.7-1.4v4.5h3.2v4.6h-3.2.1Z"/>
    <path class="cls-3" d="M129.2,7.2v15.8h-4.7v-1.5c-1,1.1-2.6,1.9-4.7,1.9-4.1,0-7.6-3.7-7.6-8.4s3.4-8.4,7.6-8.4,3.7.7,4.7,1.9v-1.5s4.7,0,4.7,0ZM124.5,15.1c0-2.4-1.6-3.9-3.8-3.9s-3.8,1.5-3.8,3.9,1.6,3.9,3.8,3.9,3.8-1.5,3.8-3.9Z"/>
    <path class="cls-3" d="M142.5,23l-5-7v7h-4.7V.9h4.7v13.2l4.7-6.9h5.5l-5.7,7.9,5.8,7.9h-5.4.1Z"/>
    <path class="cls-3" d="M164.7,7.2v15.8h-4.7v-1.5c-1,1.1-2.6,1.9-4.7,1.9-4.1,0-7.6-3.7-7.6-8.4s3.4-8.4,7.6-8.4,3.7.7,4.7,1.9v-1.5s4.7,0,4.7,0ZM160,15.1c0-2.4-1.6-3.9-3.8-3.9s-3.8,1.5-3.8,3.9,1.6,3.9,3.8,3.9,3.8-1.5,3.8-3.9Z"/>
    <path class="cls-3" d="M184.4,7.2v15.8h-4.7v-1.5c-1,1.1-2.6,1.9-4.7,1.9-4.1,0-7.6-3.7-7.6-8.4s3.4-8.4,7.6-8.4,3.7.7,4.7,1.9v-1.5s4.7,0,4.7,0ZM179.7,15.1c0-2.4-1.6-3.9-3.8-3.9s-3.8,1.5-3.8,3.9,1.6,3.9,3.8,3.9,3.8-1.5,3.8-3.9Z"/>
    <path class="cls-3" d="M203,13.4v9.7h-4.7v-8.9c0-1.9-1.3-2.9-2.8-2.9s-3,1-3,3.2v8.6h-4.7V7.3h4.7v1.5c.8-1.1,2.4-1.9,4.5-1.9,3.2,0,5.8,2.3,5.8,6.5h.1Z"/>
    <path class="cls-3" d="M6.9,27.6v22.1H1.8v-22.1h5Z"/>
    <path class="cls-3" d="M27.5,41.8c0,4.7-3.4,8.4-7.6,8.4s-3.7-.7-4.7-1.9v1.5h-4.7v-22.1h4.7v7.8c1-1.1,2.6-1.9,4.7-1.9,4.1,0,7.6,3.7,7.6,8.4ZM22.8,41.8c0-2.4-1.6-3.9-3.8-3.9s-3.8,1.5-3.8,3.9,1.6,3.9,3.8,3.9,3.8-1.5,3.8-3.9Z"/>
    <path class="cls-3" d="M39.7,33.7v5.4c-1.9-.3-4.7.5-4.7,3.6v7.1h-4.7v-15.8h4.7v2.9c.7-2.1,2.8-3.1,4.7-3.1Z"/>
    <path class="cls-3" d="M57.6,34v15.8h-4.7v-1.5c-1,1.1-2.6,1.9-4.7,1.9-4.1,0-7.6-3.7-7.6-8.4s3.4-8.4,7.6-8.4,3.7.7,4.7,1.9v-1.5s4.7,0,4.7,0ZM52.9,41.8c0-2.4-1.6-3.9-3.8-3.9s-3.8,1.5-3.8,3.9,1.6,3.9,3.8,3.9,3.8-1.5,3.8-3.9Z"/>
    <path class="cls-3" d="M76.2,40.1v9.7h-4.7v-8.9c0-1.9-1.3-2.9-2.8-2.9s-3,1-3,3.2v8.6h-4.7v-22.1h4.7v7.8c.8-1.1,2.4-1.9,4.5-1.9,3.2,0,5.8,2.3,5.8,6.5h.1Z"/>
    <path class="cls-3" d="M79,29.8c0-1.5,1.3-2.9,2.9-2.9s2.9,1.3,2.9,2.9-1.3,2.9-2.9,2.9-2.9-1.3-2.9-2.9ZM79.4,34h4.7v15.8h-4.7v-15.8Z"/>
    <path class="cls-3" d="M111.3,40.1v9.7h-4.7v-9.3c0-1.6-.8-2.6-2.3-2.6s-2.4,1.1-2.4,3v8.9h-4.7v-9.3c0-1.6-.8-2.6-2.3-2.6s-2.4,1.1-2.4,3v8.9h-4.7v-15.8h4.7v1.5c.7-1,2.1-1.9,4.2-1.9s3.2.8,4.1,2.1c.9-1.3,2.3-2.1,4.6-2.1,3.7,0,6,2.6,6,6.5h-.1Z"/>
    <path class="cls-3" d="M129.2,34l-5.4,15.4c-1.7,5-4.6,7-8.9,6.8v-4.5c2.2,0,3.2-.7,3.9-2.6l-6.3-15h5.2l3.6,9.6,3-9.6h5Z"/>
  </g>
</svg>