<?xml version="1.0" encoding="UTF-8"?>
<svg id="Layer_1" data-name="Layer 1" xmlns="http://www.w3.org/2000/svg" version="1.1" xmlns:xlink="http://www.w3.org/1999/xlink" viewBox="0 0 78 56">
  <defs>
    <style>
      .cls-1 {
        fill: #c4d3c5;
      }

      .cls-1, .cls-2, .cls-3, .cls-4, .cls-5, .cls-6, .cls-7, .cls-8, .cls-9, .cls-10, .cls-11, .cls-12, .cls-13, .cls-14, .cls-15, .cls-16, .cls-17, .cls-18, .cls-19, .cls-20, .cls-21, .cls-22, .cls-23, .cls-24, .cls-25, .cls-26, .cls-27, .cls-28, .cls-29, .cls-30, .cls-31, .cls-32, .cls-33, .cls-34, .cls-35, .cls-36, .cls-37, .cls-38, .cls-39, .cls-40, .cls-41, .cls-42, .cls-43, .cls-44, .cls-45, .cls-46, .cls-47, .cls-48, .cls-49, .cls-50, .cls-51, .cls-52, .cls-53, .cls-54, .cls-55, .cls-56, .cls-57, .cls-58, .cls-59, .cls-60, .cls-61, .cls-62, .cls-63, .cls-64, .cls-65, .cls-66, .cls-67, .cls-68, .cls-69, .cls-70, .cls-71, .cls-72, .cls-73, .cls-74, .cls-75, .cls-76, .cls-77, .cls-78, .cls-79, .cls-80, .cls-81, .cls-82, .cls-83, .cls-84, .cls-85, .cls-86, .cls-87, .cls-88, .cls-89, .cls-90, .cls-91, .cls-92, .cls-93, .cls-94, .cls-95, .cls-96, .cls-97, .cls-98, .cls-99, .cls-100, .cls-101, .cls-102, .cls-103, .cls-104, .cls-105, .cls-106, .cls-107, .cls-108, .cls-109, .cls-110, .cls-111, .cls-112, .cls-113, .cls-114, .cls-115, .cls-116, .cls-117, .cls-118, .cls-119, .cls-120, .cls-121, .cls-122, .cls-123, .cls-124, .cls-125, .cls-126, .cls-127, .cls-128, .cls-129, .cls-130, .cls-131, .cls-132, .cls-133, .cls-134, .cls-135, .cls-136, .cls-137, .cls-138, .cls-139, .cls-140, .cls-141, .cls-142, .cls-143, .cls-144, .cls-145, .cls-146, .cls-147, .cls-148, .cls-149, .cls-150, .cls-151, .cls-152, .cls-153, .cls-154, .cls-155, .cls-156, .cls-157, .cls-158, .cls-159, .cls-160, .cls-161, .cls-162, .cls-163, .cls-164, .cls-165, .cls-166, .cls-167, .cls-168, .cls-169, .cls-170, .cls-171, .cls-172, .cls-173, .cls-174, .cls-175, .cls-176, .cls-177, .cls-178, .cls-179, .cls-180, .cls-181, .cls-182, .cls-183, .cls-184, .cls-185, .cls-186, .cls-187, .cls-188, .cls-189, .cls-190, .cls-191, .cls-192, .cls-193, .cls-194, .cls-195, .cls-196, .cls-197, .cls-198, .cls-199, .cls-200, .cls-201, .cls-202, .cls-203, .cls-204, .cls-205, .cls-206, .cls-207, .cls-208, .cls-209, .cls-210, .cls-211, .cls-212, .cls-213, .cls-214, .cls-215, .cls-216, .cls-217, .cls-218, .cls-219, .cls-220, .cls-221, .cls-222, .cls-223, .cls-224, .cls-225, .cls-226, .cls-227, .cls-228, .cls-229, .cls-230, .cls-231, .cls-232, .cls-233, .cls-234, .cls-235, .cls-236, .cls-237, .cls-238, .cls-239, .cls-240, .cls-241, .cls-242, .cls-243, .cls-244, .cls-245, .cls-246, .cls-247, .cls-248, .cls-249, .cls-250, .cls-251, .cls-252, .cls-253, .cls-254, .cls-255, .cls-256, .cls-257, .cls-258, .cls-259, .cls-260, .cls-261, .cls-262, .cls-263, .cls-264, .cls-265, .cls-266, .cls-267, .cls-268, .cls-269, .cls-270, .cls-271, .cls-272, .cls-273, .cls-274, .cls-275, .cls-276, .cls-277, .cls-278, .cls-279, .cls-280, .cls-281, .cls-282, .cls-283, .cls-284, .cls-285, .cls-286, .cls-287, .cls-288, .cls-289, .cls-290, .cls-291, .cls-292, .cls-293, .cls-294, .cls-295, .cls-296, .cls-297, .cls-298, .cls-299, .cls-300, .cls-301, .cls-302, .cls-303, .cls-304, .cls-305, .cls-306, .cls-307, .cls-308, .cls-309, .cls-310, .cls-311, .cls-312, .cls-313, .cls-314, .cls-315, .cls-316, .cls-317, .cls-318, .cls-319, .cls-320, .cls-321, .cls-322, .cls-323, .cls-324, .cls-325, .cls-326, .cls-327, .cls-328, .cls-329, .cls-330, .cls-331, .cls-332, .cls-333, .cls-334 {
        stroke-width: 0px;
      }

      .cls-2 {
        fill: #208c66;
      }

      .cls-3 {
        fill: #287e53;
      }

      .cls-4 {
        fill: #7fa486;
      }

      .cls-5 {
        fill: #29835a;
      }

      .cls-6 {
        fill: #288055;
      }

      .cls-7 {
        fill: #a7c7b4;
      }

      .cls-8 {
        fill: #bedbcf;
      }

      .cls-9 {
        fill: #0f6836;
      }

      .cls-10 {
        fill: #036735;
      }

      .cls-11 {
        fill: #8eb299;
      }

      .cls-12 {
        fill: #66a486;
      }

      .cls-13 {
        fill: #87bca5;
      }

      .cls-14 {
        fill: #9fc3af;
      }

      .cls-15 {
        fill: #318056;
      }

      .cls-16 {
        fill: #227344;
      }

      .cls-17 {
        fill: #2e9572;
      }

      .cls-18 {
        fill: #3a7648;
      }

      .cls-19 {
        fill: #0c6c3b;
      }

      .cls-20 {
        fill: #feffff;
      }

      .cls-21 {
        fill: #518962;
      }

      .cls-22 {
        fill: #b3c8b6;
      }

      .cls-23 {
        fill: #9cc3b0;
      }

      .cls-24 {
        fill: #47916c;
      }

      .cls-25 {
        fill: #b0c9b7;
      }

      .cls-26 {
        fill: #849572;
      }

      .cls-27 {
        fill: #60c5b2;
      }

      .cls-28 {
        fill: #31855c;
      }

      .cls-29 {
        fill: url(#linear-gradient);
      }

      .cls-30 {
        fill: #63a486;
      }

      .cls-31 {
        fill: #3b8c65;
      }

      .cls-32 {
        fill: #063;
      }

      .cls-33 {
        fill: #6aa78a;
      }

      .cls-34 {
        fill: #367f54;
      }

      .cls-35 {
        fill: #73aa8d;
      }

      .cls-36 {
        fill: #b2e1d0;
      }

      .cls-37 {
        fill: #2e9e7d;
      }

      .cls-38 {
        fill: #096b39;
      }

      .cls-39 {
        fill: #106735;
      }

      .cls-40 {
        fill: #357f55;
      }

      .cls-41 {
        fill: #bbe0d6;
      }

      .cls-42 {
        fill: #cad1c2;
      }

      .cls-43 {
        fill: #67ad92;
      }

      .cls-44 {
        fill: #056937;
      }

      .cls-45 {
        fill: #508962;
      }

      .cls-46 {
        fill: #3dae93;
      }

      .cls-47 {
        fill: #c1ddd2;
      }

      .cls-48 {
        fill: #8ebba4;
      }

      .cls-49 {
        fill: #4b8258;
      }

      .cls-50 {
        fill: #669e7f;
      }

      .cls-51 {
        fill: #2f9471;
      }

      .cls-52 {
        fill: #a2c1ad;
      }

      .cls-53 {
        fill: #92bca6;
      }

      .cls-54 {
        fill: #318157;
      }

      .cls-55 {
        fill: #35865e;
      }

      .cls-56 {
        fill: #6abaa4;
      }

      .cls-57 {
        fill: #94d3bb;
      }

      .cls-58 {
        fill: #5bc1ad;
      }

      .cls-59 {
        fill: #74916c;
      }

      .cls-60 {
        fill: #d9e8e0;
      }

      .cls-61 {
        fill: #008a49;
      }

      .cls-62 {
        fill: #419470;
      }

      .cls-63 {
        fill: #38a88c;
      }

      .cls-64 {
        fill: #42af95;
      }

      .cls-65 {
        fill: #d8e7df;
      }

      .cls-66 {
        fill: #498157;
      }

      .cls-67 {
        fill: #76bfaa;
      }

      .cls-68 {
        fill: #b4d2c3;
      }

      .cls-69 {
        fill: #cce0d6;
      }

      .cls-70 {
        fill: #3f916c;
      }

      .cls-71 {
        fill: #297e54;
      }

      .cls-72 {
        fill: #026735;
      }

      .cls-73 {
        fill: #eff2ee;
      }

      .cls-74 {
        fill: #2b8158;
      }

      .cls-75 {
        fill: #cee0d5;
      }

      .cls-76 {
        fill: #307344;
      }

      .cls-77 {
        fill: #3b6633;
      }

      .cls-78 {
        fill: #8ab79f;
      }

      .cls-79 {
        fill: #718a63;
      }

      .cls-80 {
        fill: #589d7d;
      }

      .cls-81 {
        fill: #5d9f7f;
      }

      .cls-82 {
        fill: #548861;
      }

      .cls-83 {
        fill: #206e3d;
      }

      .cls-84 {
        fill: #c3d7c9;
      }

      .cls-85 {
        fill: #59936f;
      }

      .cls-86 {
        fill: #bdb39a;
      }

      .cls-87 {
        fill: #43b197;
      }

      .cls-88 {
        fill: #9dcfbe;
      }

      .cls-89 {
        fill: #5e8a63;
      }

      .cls-90 {
        fill: #c4dacf;
      }

      .cls-91 {
        fill: #a5cab8;
      }

      .cls-92 {
        fill: #67a081;
      }

      .cls-93 {
        fill: #77a283;
      }

      .cls-94 {
        fill: #5d9470;
      }

      .cls-95 {
        fill: #6ca78a;
      }

      .cls-96 {
        fill: #358157;
      }

      .cls-97 {
        fill: #7d8b64;
      }

      .cls-98 {
        fill: #3b7344;
      }

      .cls-99 {
        fill: #92bda8;
      }

      .cls-100 {
        fill: #82b59d;
      }

      .cls-101 {
        fill: #5a9b7a;
      }

      .cls-102 {
        fill: #cad7c9;
      }

      .cls-103 {
        fill: #a2c837;
      }

      .cls-104 {
        fill: #168157;
      }

      .cls-105 {
        fill: #5f9c7c;
      }

      .cls-106 {
        fill: #3f8d67;
      }

      .cls-107 {
        fill: #3a7142;
      }

      .cls-108 {
        fill: #92a98d;
      }

      .cls-109 {
        fill: #5dae92;
      }

      .cls-110 {
        fill: #98bea8;
      }

      .cls-111 {
        fill: #97e7df;
      }

      .cls-112 {
        fill: #c0ddcb;
      }

      .cls-113 {
        fill: #539b7b;
      }

      .cls-114 {
        fill: #5e9f7f;
      }

      .cls-115 {
        fill: #4a8d68;
      }

      .cls-116 {
        fill: #729e7e;
      }

      .cls-117 {
        fill: #1f7a4e;
      }

      .cls-118 {
        fill: #6fa88c;
      }

      .cls-119 {
        fill: #f4f4f4;
      }

      .cls-120 {
        fill: #0b6c3b;
      }

      .cls-121 {
        fill: #4e916d;
      }

      .cls-122 {
        fill: #89b9a2;
      }

      .cls-123 {
        fill: #eaf2ef;
      }

      .cls-124 {
        fill: #2f7b4f;
      }

      .cls-125 {
        fill: #66a587;
      }

      .cls-126 {
        fill: #36855c;
      }

      .cls-127 {
        fill: #71ad91;
      }

      .cls-128 {
        fill: #428860;
      }

      .cls-129 {
        fill: #7d8c66;
      }

      .cls-130 {
        fill: #5fc5b2;
      }

      .cls-131 {
        fill: #1b865d;
      }

      .cls-132 {
        fill: #c3f3ef;
      }

      .cls-133 {
        fill: #337344;
      }

      .cls-134 {
        fill: #dbe5dc;
      }

      .cls-135 {
        fill: #5cc3af;
      }

      .cls-136 {
        fill: #70aa8e;
      }

      .cls-137 {
        fill: #4a8259;
      }

      .cls-138 {
        fill: #18835a;
      }

      .cls-139 {
        fill: #217a4d;
      }

      .cls-140 {
        fill: #207041;
      }

      .cls-141 {
        fill: #3d7648;
      }

      .cls-142 {
        fill: #0e6d3c;
      }

      .cls-143 {
        fill: #a0e7db;
      }

      .cls-144 {
        fill: #428c66;
      }

      .cls-145 {
        fill: #3a8b65;
      }

      .cls-146 {
        fill: #8ed6c9;
      }

      .cls-147 {
        fill: #3b875f;
      }

      .cls-148 {
        fill: #f0ede7;
      }

      .cls-149 {
        fill: #4e9876;
      }

      .cls-150 {
        fill: #61a588;
      }

      .cls-151 {
        fill: #91a689;
      }

      .cls-152 {
        fill: #23865e;
      }

      .cls-153 {
        fill: #3a7b4f;
      }

      .cls-154 {
        fill: #c9cdbd;
      }

      .cls-155 {
        fill: #1d7648;
      }

      .cls-156 {
        fill: #5f9a78;
      }

      .cls-157 {
        fill: #5ca789;
      }

      .cls-158 {
        fill: #88bea9;
      }

      .cls-159 {
        fill: #d0e0d6;
      }

      .cls-160 {
        fill: #338259;
      }

      .cls-161 {
        fill: #0e6c3c;
      }

      .cls-162 {
        fill: #7db197;
      }

      .cls-163 {
        fill: #d0e6dd;
      }

      .cls-164 {
        fill: #5b9774;
      }

      .cls-165 {
        fill: #40865d;
      }

      .cls-166 {
        fill: #408e69;
      }

      .cls-167 {
        fill: #c2b9a2;
      }

      .cls-168 {
        fill: #53936f;
      }

      .cls-169 {
        fill: #d3e3d9;
      }

      .cls-170 {
        fill: #82b197;
      }

      .cls-171 {
        fill: #279572;
      }

      .cls-172 {
        fill: #237445;
      }

      .cls-173 {
        fill: #48845b;
      }

      .cls-174 {
        fill: #478056;
      }

      .cls-175 {
        fill: #a4c1ab;
      }

      .cls-176 {
        fill: #186c3c;
      }

      .cls-177 {
        fill: #2b926e;
      }

      .cls-178 {
        fill: #4d8b64;
      }

      .cls-179 {
        fill: #559978;
      }

      .cls-180 {
        fill: #cfe3da;
      }

      .cls-181 {
        fill: #046836;
      }

      .cls-182 {
        fill: #33855d;
      }

      .cls-183 {
        fill: #8bbda6;
      }

      .cls-184 {
        fill: #90b9a1;
      }

      .cls-185 {
        fill: #467d52;
      }

      .cls-186 {
        fill: #a1c9b7;
      }

      .cls-187 {
        fill: #227c50;
      }

      .cls-188 {
        fill: #68a588;
      }

      .cls-189 {
        fill: #448f6a;
      }

      .cls-190 {
        fill: #528961;
      }

      .cls-191 {
        fill: #52bda7;
      }

      .cls-192 {
        fill: #99e8e0;
      }

      .cls-193 {
        fill: #598962;
      }

      .cls-194 {
        fill: #398056;
      }

      .cls-195 {
        fill: #add7ca;
      }

      .cls-196 {
        fill: #b3d3c3;
      }

      .cls-197 {
        fill: #32835a;
      }

      .cls-198 {
        fill: #6ecebd;
      }

      .cls-199 {
        fill: #348c66;
      }

      .cls-200 {
        fill: #7bd6c8;
      }

      .cls-201 {
        fill: #aff0eb;
      }

      .cls-202 {
        fill: #5e9b7a;
      }

      .cls-203 {
        fill: #096b3a;
      }

      .cls-204 {
        fill: #3ba789;
      }

      .cls-205 {
        fill: #669e7d;
      }

      .cls-206 {
        fill: #8ab7a0;
      }

      .cls-207 {
        fill: #ddece6;
      }

      .cls-208 {
        fill: #9fc1ad;
      }

      .cls-209 {
        fill: #3ba78a;
      }

      .cls-210 {
        fill: #367a4f;
      }

      .cls-211 {
        fill: #91ab8f;
      }

      .cls-212 {
        fill: #3c8b65;
      }

      .cls-213 {
        fill: #036835;
      }

      .cls-214 {
        fill: #569d7c;
      }

      .cls-215 {
        fill: #7b9978;
      }

      .cls-216 {
        fill: #fefffe;
      }

      .cls-217 {
        fill: #9dc7b4;
      }

      .cls-218 {
        fill: #519572;
      }

      .cls-219 {
        fill: #8ea080;
      }

      .cls-220 {
        fill: #2d9470;
      }

      .cls-221 {
        fill: #317649;
      }

      .cls-222 {
        fill: #81b399;
      }

      .cls-223 {
        fill: #45794c;
      }

      .cls-224 {
        fill: #a1c9b8;
      }

      .cls-225 {
        fill: #d9eae3;
      }

      .cls-226 {
        fill: #6ea88c;
      }

      .cls-227 {
        fill: #cae0d6;
      }

      .cls-228 {
        fill: #98c4b0;
      }

      .cls-229 {
        fill: #9dd9cd;
      }

      .cls-230 {
        fill: #448e68;
      }

      .cls-231 {
        fill: #ecf4f1;
      }

      .cls-232 {
        fill: #4d8f6a;
      }

      .cls-233 {
        fill: #3d794d;
      }

      .cls-234 {
        fill: #318962;
      }

      .cls-235 {
        fill: #4b8e69;
      }

      .cls-236 {
        fill: #157749;
      }

      .cls-237 {
        fill: #22855c;
      }

      .cls-238 {
        fill: #448c65;
      }

      .cls-239 {
        fill: #5c9b7a;
      }

      .cls-240 {
        fill: #a0c4b0;
      }

      .cls-241 {
        fill: #6ba689;
      }

      .cls-242 {
        fill: #58a284;
      }

      .cls-243 {
        fill: #377547;
      }

      .cls-244 {
        fill: #1c7142;
      }

      .cls-245 {
        fill: #d6dace;
      }

      .cls-246 {
        fill: #afd0c1;
      }

      .cls-247 {
        fill: #98c7b5;
      }

      .cls-248 {
        fill: #4b936f;
      }

      .cls-249 {
        fill: #ef305e;
      }

      .cls-249, .cls-335 {
        display: none;
      }

      .cls-250 {
        fill: #4b9a79;
      }

      .cls-251 {
        fill: #289674;
      }

      .cls-252 {
        fill: #c8bfa9;
      }

      .cls-253 {
        fill: #10794d;
      }

      .cls-254 {
        fill: #98c2af;
      }

      .cls-255 {
        fill: #016634;
      }

      .cls-256 {
        fill: #649674;
      }

      .cls-257 {
        fill: #84b79f;
      }

      .cls-258 {
        fill: #7ab096;
      }

      .cls-259 {
        fill: #4cb79f;
      }

      .cls-260 {
        fill: #fff;
      }

      .cls-261 {
        fill: #2a865d;
      }

      .cls-262 {
        fill: #c1dacd;
      }

      .cls-263 {
        fill: #659571;
      }

      .cls-264 {
        fill: #6fa587;
      }

      .cls-265 {
        fill: #5d9a79;
      }

      .cls-266 {
        fill: #1d8961;
      }

      .cls-267 {
        fill: #3b7649;
      }

      .cls-268 {
        fill: #acccbb;
      }

      .cls-269 {
        fill: #87b49c;
      }

      .cls-270 {
        fill: #1c8860;
      }

      .cls-271 {
        fill: #48794c;
      }

      .cls-272 {
        fill: #30784b;
      }

      .cls-273 {
        fill: #65a081;
      }

      .cls-274 {
        fill: #bee6d8;
      }

      .cls-275 {
        fill: #adb8a1;
      }

      .cls-276 {
        fill: #79af94;
      }

      .cls-277 {
        fill: #a3cab9;
      }

      .cls-278 {
        fill: #78ae94;
      }

      .cls-279 {
        fill: #016734;
      }

      .cls-280 {
        fill: #6ca68a;
      }

      .cls-281 {
        fill: #3bad91;
      }

      .cls-282 {
        fill: #659f80;
      }

      .cls-283 {
        fill: #83b095;
      }

      .cls-284 {
        fill: #97bea9;
      }

      .cls-285 {
        fill: #116e3e;
      }

      .cls-286 {
        fill: #bfb69e;
      }

      .cls-287 {
        fill: #277f54;
      }

      .cls-288 {
        fill: #407c51;
      }

      .cls-289 {
        fill: #669f7f;
      }

      .cls-290 {
        fill: #016633;
      }

      .cls-291 {
        fill: #2c8258;
      }

      .cls-292 {
        fill: #8cac91;
      }

      .cls-293 {
        fill: #34a587;
      }

      .cls-294 {
        fill: #026734;
      }

      .cls-295 {
        fill: #64a385;
      }

      .cls-296 {
        fill: #a6cab9;
      }

      .cls-297 {
        fill: #71a485;
      }

      .cls-298 {
        fill: #aed0c0;
      }

      .cls-299 {
        fill: #70cfbf;
      }

      .cls-300 {
        fill: #46936e;
      }

      .cls-301 {
        fill: #9db59d;
      }

      .cls-302 {
        fill: #8fa080;
      }

      .cls-303 {
        fill: #b7ccbc;
      }

      .cls-304 {
        fill: #4f9775;
      }

      .cls-305 {
        fill: #569d7d;
      }

      .cls-306 {
        fill: #84b097;
      }

      .cls-307 {
        fill: #066937;
      }

      .cls-308 {
        fill: #a2bfaa;
      }

      .cls-309 {
        fill: #65906b;
      }

      .cls-310 {
        fill: #bed8cc;
      }

      .cls-311 {
        fill: #9aa283;
      }

      .cls-312 {
        fill: #458156;
      }

      .cls-313 {
        fill: #599e7d;
      }

      .cls-314 {
        fill: #81a98c;
      }

      .cls-315 {
        fill: #a4c9b7;
      }

      .cls-316 {
        fill: #567445;
      }

      .cls-317 {
        fill: #4d916c;
      }

      .cls-318 {
        fill: #b1aa8d;
      }

      .cls-319 {
        fill: #95ba93;
      }

      .cls-320 {
        fill: #7fa081;
      }

      .cls-321 {
        fill: #c6d4c6;
      }

      .cls-322 {
        fill: #6da98c;
      }

      .cls-323 {
        fill: #50835a;
      }

      .cls-324 {
        fill: #fefefe;
      }

      .cls-325 {
        fill: #e9f2ed;
      }

      .cls-326 {
        fill: #436b39;
      }

      .cls-327 {
        fill: #458c66;
      }

      .cls-328 {
        fill: #53ac30;
      }

      .cls-329 {
        fill: #486b3a;
      }

      .cls-330 {
        fill: #117b4f;
      }

      .cls-331 {
        fill: #89baa3;
      }

      .cls-332 {
        fill: #478860;
      }

      .cls-333 {
        fill: #85b096;
      }

      .cls-334 {
        fill: #4b875f;
      }
    </style>
    <linearGradient id="linear-gradient" x1="28.5" y1="31.7" x2="48.5" y2="25.7" gradientTransform="translate(0 58) scale(1 -1)" gradientUnits="userSpaceOnUse">
      <stop offset="0" stop-color="#000" stop-opacity=".2"/>
      <stop offset=".9" stop-color="#fff" stop-opacity="0"/>
    </linearGradient>
  </defs>
  <path class="cls-249" d="M61.1,2.8l15.2,47.4c.8,2.6-1.1,5.2-3.8,5.2h-11.2c-1.7,0-3.3-1.1-3.8-2.8L42.5,5.2c-.8-2.6,1.1-5.2,3.8-5.2h11c1.7,0,3.3,1.1,3.8,2.8Z"/>
  <g class="cls-335">
    <path class="cls-119" d="M46.5,37.8L35.8,3.4c-.6-2.1-2.5-3.4-4.7-3.4s-4.8,2.1-4.9,4.7l-1.3,25.7c0,.9,0,1.8.3,2.7l5.8,19.5c.5,1.7,2.1,2.9,3.8,2.9h5.4c1.7,0,3.3-1.1,3.8-2.8l2.4-7.5c.7-2.3.8-4.9,0-7.2Z"/>
    <path class="cls-29" d="M46.5,37.8L35.8,3.4c-.6-2.1-2.5-3.4-4.7-3.4s-4.8,2.1-4.9,4.7l-1.3,25.7c0,.9,0,1.8.3,2.7l5.8,19.5c.5,1.7,2.1,2.9,3.8,2.9h5.4c1.7,0,3.3-1.1,3.8-2.8l2.4-7.5c.7-2.3.8-4.9,0-7.2Z"/>
  </g>
  <path class="cls-249" d="M20.3,0h11c2.7,0,4.6,2.6,3.8,5.2l-14.9,47.8c-.5,1.7-2.1,2.8-3.8,2.8H5.4c-2.7,0-4.6-2.6-3.8-5.2L16.5,2.8c.5-1.7,2.1-2.8,3.8-2.8Z"/>
  <g>
    <path class="cls-260" d="M27.1,55.2H7.5V1.8h43.6s0,0,0,0c0,0,0,0,0,0,0,0,0,0,0,0,0,0,0,0,0,0,0,0,0,0,0,0,0,0,0,0,0,0,.2,0,.3,0,.3.2,0,.1,0,.2-.2.3,0,0,0,0,0,0,.1,0,.3,0,.3-.2,0-.2,0-.3-.2-.4,0,0,0,0,0,0h20.2v40.1c-.2.1-.4,0-.6,0-.5,0-.5,0-.6.5-.3,1-.7,1.9-1,2.9,0,0,0,0,0,0,0,0,0,.2-.2.2-.1,0-.1-.1-.2-.2-.3-1-.7-2-1-3q-.1-.3-.4-.3c-.2,0-.4,0-.6,0-.2,0-.3,0-.2.3.2.6.4,1.1.7,1.7.3.9.7,1.7,1,2.6,0,.2,0,.4,0,.5,0,1,0,1.9,0,2.9,0,.3,0,.3.3.3.2,0,.4,0,.5,0,.2,0,.2,0,.2-.2,0-.5,0-1.1,0-1.6,0,0,0-.2,0-.2,0-.9.1-1.8.5-2.7.5-1.1.9-2.2,1.3-3.3,0,0,0-.2.2-.2v13.2h-26s0,0,0,0c0-.2.1-.3.2-.4.3-.5.5-1.1.5-1.8,0-.6-.3-1.1-.6-1.6,0,0-.1-.1-.2-.1,0,0-.2,0-.3,0-5.8,0-11.6,0-17.4,0,0,0-.2,0-.3,0,0,0,0,.2.1.3.2.4.4.8.5,1.3,0,.6,0,1.1-.3,1.6-.1.3-.3.5-.5.8,0,0,0,0,0,0Z"/>
    <path class="cls-61" d="M71.5,42c-.1.3-.3.7-.4,1-.5,1.2-.9,2.4-1.4,3.6,0,.1,0,.3,0,.4,0,1,0,2,0,3,0,0,0,.1,0,.2,0,0,0,.1-.1.1-.3,0-.6,0-1,0,0,0-.1,0-.1-.1,0,0,0-.1,0-.2,0-1,0-2,0-3,0-.2,0-.3,0-.4-.6-1.5-1.2-3-1.7-4.4,0,0,0-.1,0-.2.2,0,.5,0,.7,0,.2,0,.3,0,.5,0,.1,0,.2,0,.2.1.2.5.4,1.1.5,1.6.2.6.4,1.2.6,1.7,0,0,0,.1,0,.2,0,0,0-.1,0-.2.4-1.1.8-2.2,1.1-3.3,0-.2,0-.2.3-.2.3,0,.6,0,.9,0h0Z"/>
    <path class="cls-325" d="M45.5,55.1s0,0,0,0h-18.4s0,0,0,0c.1,0,.2,0,.4,0,5.9,0,11.8,0,17.7,0,.1,0,.2,0,.3,0Z"/>
    <path class="cls-23" d="M51.3,1.8s0,0,0,0c0,0-.1,0-.2,0,0,0,0,0,0,0h.2Z"/>
    <path class="cls-61" d="M26.5,54.3c-1.6-.8-2.9-.5-4.1.9,0,0,0-.1,0-.2-.7-3.5-1.4-6.9-2.2-10.4-.6-2.9-1.2-5.7-1.8-8.6,0,0,0-.2,0-.2.5-.5,1-1,1.7-1.1.5-.1,1-.1,1.6,0,.2,0,.5.2.7.3.1,0,.2.1.2.2.3,1.6.7,3.3,1,4.9.4,2.1.9,4.2,1.3,6.3.4,2.1.9,4.2,1.3,6.3.1.5.2,1,.3,1.5,0,0,0,0,0,.2Z"/>
    <path class="cls-328" d="M17.8,55.1c-1.4-1.1-2.8-1.1-4.3,0,0-.1,0-.2,0-.2,0-6.4,0-12.9,0-19.3,0-.2,0-.3.2-.3.2-.2.5-.3.8-.4.7-.3,1.4-.3,2.1,0,.4.1.8.3,1.1.6,0,0,.1.1.1.2,0,0,0,0,0,.1,0,6.4,0,12.8,0,19.2v.3Z"/>
    <path class="cls-103" d="M12.9,55.1c-1.4-1.1-2.8-1-4.2,0,0,0,0,0,0-.1,0,0,0,0,0-.1,0-6.4,0-12.8,0-19.2,0-.2,0-.3.2-.4.3-.2.7-.4,1.1-.6.6-.2,1.1-.1,1.7,0,.4.1.8.3,1.1.6,0,0,.1.1.1.2,0,0,0,0,0,.1,0,6.4,0,12.8,0,19.2,0,0,0,.2,0,.3Z"/>
    <path class="cls-32" d="M45.5,55.1c0,0-.2,0-.3,0-5.9,0-11.9,0-17.8,0,0,0-.2,0-.3,0,0-.1.2-.2.2-.4.2-.4.4-.8.5-1.2,0-.5,0-1-.2-1.5-.1-.3-.2-.5-.4-.7,0,0,0-.1,0-.2,0,0,.2,0,.2,0,6,0,11.9,0,17.9,0,.2,0,.3,0,.4.2.4.6.7,1.3.6,2,0,.4-.2.7-.3,1.1-.1.2-.3.4-.4.6Z"/>
    <path class="cls-61" d="M64.3,43.2c-.2.6-.3,1.3-.5,1.9-.4,1.7-.8,3.3-1.2,5,0,.2,0,.2-.3.2-.2,0-.5,0-.7,0-.2,0-.2,0-.2-.2-.2-.9-.4-1.8-.6-2.7-.3-1.4-.7-2.8-1-4.1,0,0,0,0,0-.1,0,0,0,0,0-.1,0,0,0,0,0,.1,0,0,0,.2,0,.3,0,2.2,0,4.4,0,6.5,0,0,0,0,0,.1,0,.2,0,.2-.2.2-.2,0-.5,0-.7,0-.1,0-.2,0-.2-.2,0,0,0,0,0-.1,0-2.6,0-5.2,0-7.9,0-.3,0-.3.3-.3.5,0,1,0,1.5,0,.2,0,.2,0,.2.2.4,1.6.7,3.1,1.1,4.7.1.6.3,1.1.4,1.7,0,0,0,0,0,0,.2-1,.4-1.9.6-2.9.3-1.1.5-2.2.8-3.3,0,0,0,0,0-.1,0,0,0-.1.1-.1,0,0,0,0,0,0,.5,0,1,0,1.5,0,.2,0,.2,0,.2.2,0,0,0,0,0,0,0,2.6,0,5.2,0,7.8,0,.3,0,.3-.3.3-.2,0-.4,0-.7,0,0,0-.1,0-.1-.1,0,0,0-.1,0-.2,0-2.2,0-4.4,0-6.5,0,0,0-.2,0-.3,0,0,0,0,0-.1,0,0,0,0,0,.1Z"/>
    <path class="cls-61" d="M34.1,46c0,0,.1,0,.2,0,.7.1,1.1.5,1.3,1.2.1.6.1,1.3-.1,1.9-.3.7-.8,1-1.5,1.1-.4,0-.9,0-1.3,0-.5,0-1.1,0-1.6,0-.1,0-.2,0-.2-.2,0,0,0,0,0-.1,0-2.6,0-5.2,0-7.8,0,0,0,0,0-.1,0-.2,0-.2.2-.2.8,0,1.5,0,2.3,0,.2,0,.5,0,.7,0,.8.2,1.2.6,1.4,1.4,0,.5,0,.9,0,1.4-.1.5-.4.9-.9,1.1-.1,0-.2,0-.4.1,0,0,0,0,0,0,0,0,0,0,0,0Z"/>
    <path class="cls-61" d="M40.3,46c.1,0,.2,0,.3,0,.5.1.7.4.8.8,0,.3,0,.6,0,.9,0,.5,0,1,0,1.4,0,.3,0,.5.2.8,0,0,0,0,0,.1-.3,0-.7,0-1.1,0-.1,0-.1,0-.1-.1,0-.3-.1-.7-.2-1,0-.5,0-.9,0-1.4,0-.3,0-.5-.2-.8-.1-.3-.4-.4-.7-.5-.4,0-.8,0-1.2,0,0,0-.1,0-.1.1,0,.1,0,.3,0,.4,0,1,0,2,0,3,0,0,0,.1,0,.2,0,0,0,.1-.1.1-.3,0-.6,0-1,0,0,0-.1,0-.1-.1,0,0,0-.1,0-.2,0-2.6,0-5.2,0-7.9,0-.3,0-.3.3-.3.8,0,1.6,0,2.3,0,.2,0,.5,0,.7,0,.7.1,1.1.5,1.3,1.1.2.6.2,1.2,0,1.8-.1.5-.4.9-.9,1-.1,0-.3,0-.4.1,0,0,0,0,0,0Z"/>
    <path class="cls-32" d="M16,31.7c0,0,.1,0,.2,0,4.6,0,9.2.1,13.9.2,2.2,0,4.4,0,6.6,0,3.9,0,7.8,0,11.6.1,2.2,0,4.5,0,6.7,0,1.2,0,2.5,0,3.7,0,0,0,0,0,0,0q.4,0,.4.4c0,2.3,0,4.6,0,6.9,0,0,0,.2,0,.2,0-1.1-.2-2.1-.3-3.2,0-1-.2-2-.2-3,0-.2,0-.3,0-.5,0-.1,0-.2-.2-.2-.5,0-.9,0-1.4,0-1.3,0-2.6,0-3.9-.1-2,0-3.9-.1-5.9-.2-1.3,0-2.6,0-3.8-.1-2,0-4-.1-6-.2-1.3,0-2.5,0-3.8-.1-2,0-4.1-.1-6.1-.2-1.3,0-2.5,0-3.8-.1-2,0-4-.1-6-.2-1.2,0-2.4,0-3.6-.1,0,0-.2,0-.2,0,0,0,0,0,0,0,.7,0,1.4,0,2.1,0Z"/>
    <path class="cls-61" d="M49.5,46v-3.9s0,0,0-.1c0-.2,0-.2.2-.2.3,0,.5,0,.8,0,.2,0,.2,0,.2.2,0,1,0,2,0,3.1,0,0,0,.1,0,.2,0,.1,0,.2.2.1,0,0,0,0,0,0,.7,0,1.4,0,2.1,0,.2,0,.2,0,.2-.2,0-1,0-2.1,0-3.1,0,0,0-.1,0-.2,0-.1,0-.1.1-.1.3,0,.6,0,.9,0,.1,0,.1,0,.1.1,0,0,0,0,0,.1,0,2.6,0,5.2,0,7.8,0,0,0,.1,0,.2,0,0,0,.1-.1.1-.3,0-.6,0-.9,0,0,0-.1,0-.1-.1,0,0,0-.1,0-.2,0-1.1,0-2.2,0-3.3,0,0,0-.1,0-.2,0,0,0,0,0,0,0,0-.1,0-.2,0-.6,0-1.3,0-1.9,0-.3,0-.3,0-.3.3,0,1.1,0,2.2,0,3.3,0,.3,0,.3-.3.3-.2,0-.5,0-.7,0-.1,0-.1,0-.1-.1,0,0,0-.1,0-.2,0-1.3,0-2.6,0-3.9Z"/>
    <path class="cls-61" d="M48.2,50.3c-.4,0-.7,0-1.1,0-.1,0-.1,0-.1-.1,0-.4-.2-.8-.3-1.2,0-.1,0-.3,0-.4,0-.1,0-.2-.2-.2-.6,0-1.3,0-1.9,0-.1,0-.2,0-.2.1-.1.5-.2,1-.3,1.5,0,0,0,.1,0,.2,0,0,0,0-.1,0-.3,0-.7,0-1,0,0-.3.1-.6.2-.9.6-2.4,1.1-4.9,1.7-7.3,0,0,0,0,0-.1,0-.1,0-.1.2-.1.4,0,.8,0,1.2,0,.1,0,.2,0,.2.2.3,1.5.7,3,1.1,4.6.3,1.2.5,2.3.8,3.5,0,0,0,.1,0,.2Z"/>
    <path class="cls-32" d="M61.9,39c0-.7,0-1.5,0-2.2,0-1.4,0-2.8-.1-4.2,0-1.6,1.1-3.1,2.7-3.6,2.2-.6,4.3.9,4.6,3.1,0,.2,0,.3,0,.5,0,2.4,0,4.8,0,7.2,0,0,0,.1,0,.2,0,0,0,0,0,0,0-.8-.1-1.5-.2-2.3,0-.9-.1-1.8-.2-2.6,0-.6,0-1.2-.2-1.8-.2-1.3-.9-2.3-2.1-2.8-1.8-.7-3.8.4-4.3,2.3,0,.1,0,.2,0,.4,0,0,0,.2,0,.2,0,1.9,0,3.8,0,5.6,0,0,0,0,0,0Z"/>
    <path class="cls-32" d="M20.5,28.8c0,0,.2,0,.3,0,6,0,12.1,0,18.1.1,4.9,0,9.8,0,14.8.1,1.2,0,2.3,0,3.5,0,0,0,.1,0,.2,0-.1.1-.2.2-.3.3,0,0-.2.1-.1.3,0,.3,0,.4-.3.6-.6.4-1.1.8-1.7,1.2,0,0,0,0,0,0,.5-.6.9-1.1,1.4-1.7,0,0-.1,0-.2,0-3.3,0-6.5-.1-9.8-.2-2.1,0-4.3,0-6.4-.1-3.1,0-6.2-.1-9.2-.2-2.1,0-4.3,0-6.4-.1-2,0-4,0-6-.1,0,0,0,0,0,0,0,0,0,0,0,0,.8,0,1.6,0,2.3,0Z"/>
    <path class="cls-61" d="M28.2,46c0-1.3,0-2.6,0-3.9,0,0,0,0,0-.1,0-.2,0-.2.2-.2.3,0,.6,0,.9,0,.1,0,.2,0,.2.2,0,0,0,0,0,0,0,2.6,0,5.3,0,7.9,0,.3,0,.3-.3.3-.2,0-.5,0-.7,0-.2,0-.2,0-.2-.2,0-.4,0-.9,0-1.3,0-.9,0-1.8,0-2.7Z"/>
    <path class="cls-32" d="M29.7,23.8c4.4,0,8.8,0,13.2,0,.5,0,.9,0,1.4.2,3.7,1.3,7.5,2.7,11.2,4,0,0,.1,0,.2,0,0,0,0,0,0,0-.6-.2-1.2-.4-1.8-.5-3.4-1.1-6.9-2.1-10.3-3.2-.2,0-.3,0-.5,0-.7,0-1.4,0-2.1,0-2.3,0-4.5-.1-6.8-.2-2.6,0-5.2-.1-7.7-.2-.4,0-.7,0-1.1,0,0,0,0,0,0,0,1.4,0,2.7,0,4.1,0,0,0,.2,0,.3,0Z"/>
    <path class="cls-61" d="M57,46.1c0,1.3,0,2.6,0,3.9,0,0,0,.1,0,.2,0,0,0,.1-.1.1-.3,0-.6,0-.9,0,0,0-.1,0-.1-.1,0,0,0-.1,0-.2,0-2.6,0-5.2,0-7.9s0,0,0,0c0-.2,0-.2.2-.2.3,0,.5,0,.8,0,.2,0,.2,0,.2.2,0,.7,0,1.3,0,2,0,.7,0,1.4,0,2Z"/>
    <path class="cls-32" d="M60.2,27.5c.5,0,1.1,0,1.6,0,1.4,0,2.8-.1,4.1-.2,1.6,0,3.2-.1,4.8-.2q.6,0,.6.5c0,3.2,0,6.3,0,9.5,0,0,0,0,0,0,0-1-.1-2-.2-3,0-1.1-.1-2.3-.2-3.4,0-.9-.1-1.7-.2-2.6,0,0,0-.1,0-.2,0,0,0-.1-.1-.1,0,0,0,0-.1,0-1.3,0-2.6,0-4-.1-2.1,0-4.2-.1-6.3-.2,0,0,0,0,0,0,0,0,0,0,0,0Z"/>
    <path class="cls-32" d="M38,40.5c-.7,0-1.4,0-2.1,0-.2,0-.2,0-.2-.2,0-1,0-2,0-3.1,0-1.2.9-2.2,2.2-2.3,1.1,0,2.2.7,2.4,1.8,0,.2,0,.3,0,.5,0,1,0,2,0,3,0,0,0,0,0,.1,0,0,0,0,0,0,0,0-.1,0-.2,0-.7,0-1.4,0-2.1,0Z"/>
    <path class="cls-32" d="M45.9,40.5c-.7,0-1.4,0-2.1,0-.2,0-.2,0-.2-.2,0-1,0-2.1,0-3.1,0-1.2,1-2.2,2.2-2.3,1.3,0,2.3.9,2.4,2,0,.1,0,.2,0,.3,0,1,0,2,0,3,0,.2,0,.2-.2.2-.7,0-1.4,0-2.1,0Z"/>
    <path class="cls-32" d="M30.1,40.5c-.7,0-1.4,0-2.1,0-.2,0-.2,0-.2-.2,0-1,0-2.1,0-3.1,0-1.2.9-2.2,2.2-2.3,1.1,0,2.2.7,2.4,1.9,0,.2,0,.3,0,.5,0,1,0,2,0,2.9,0,0,0,0,0,.1,0,0,0,0-.1,0,0,0-.1,0-.2,0-.7,0-1.4,0-2.1,0Z"/>
    <path class="cls-32" d="M53.8,40.5c-.7,0-1.4,0-2.1,0-.2,0-.2,0-.2-.2,0-1,0-2,0-3.1,0-1.1.8-2.2,2.2-2.3,1.4,0,2.4,1,2.5,2.1,0,.4,0,.9,0,1.3,0,.6,0,1.3,0,1.9,0,.2,0,.2-.2.2-.7,0-1.4,0-2.1,0Z"/>
    <path class="cls-32" d="M55,53.1c0,0,0,0,0,0,.3,0,.5.3.5.6,0,.2,0,.5,0,.7,0,.2-.3.4-.5.4-.4,0-.9,0-1.3,0,0,0,0,0,0,0,0,0,0,0,0-.1,0-1,0-2.1,0-3.1,0,0,0,0,0-.1,0,0,0,0,0,0,.4,0,.8,0,1.2,0,.4,0,.6.2.6.6,0,.1,0,.3,0,.4,0,.3-.2.6-.6.7Z"/>
    <path class="cls-32" d="M44,21.9c-.5-.1-1-.3-1.4-.4-1.5-.4-3-.9-4.6-1.3-.1,0-.3,0-.4,0-2.6,0-5.2-.2-7.8-.2-.3,0-.6,0-1,0,0,0-.1,0-.1,0,1.1,0,2.2,0,3.4,0,1.9,0,3.8,0,5.7,0,.1,0,.2,0,.3,0,1.9.7,3.9,1.4,5.8,2.1,0,0,0,0,.1,0,0,0,0,0,0,0,0,0,0,0,0,0Z"/>
    <path class="cls-32" d="M37.5,18.1c-.3-.1-.5-.3-.8-.4-1.7-1-3.4-2-5-2.9-.2-.1-.2-.2-.4,0-1.2.9-2.4,1.9-3.7,2.8,0,0-.1,0-.2.1,0,0,0,0,0,0,.6-.6,1.3-1.1,1.9-1.7.7-.7,1.5-1.3,2.2-1.9.2-.1.1-.1.3,0,1.9,1.3,3.8,2.7,5.7,4,0,0,0,0,0,0,0,0,0,0,0,0Z"/>
    <path class="cls-32" d="M70.1,24.4c-.2-.1-.4-.2-.5-.3-1.7-1-3.5-2-5.2-3-.2-.1-.2-.1-.4,0-1.2.9-2.4,1.9-3.7,2.8,0,0-.1,0-.2.1,0,0,0,0,0,0,.7-.6,1.3-1.2,2-1.7.7-.6,1.5-1.3,2.2-1.9.2-.1.1-.1.3,0,1.9,1.3,3.8,2.7,5.6,4,0,0,0,0,0,0,0,0,0,0,0,0Z"/>
    <path class="cls-32" d="M58.9,53.2c.3.1.4.2.5.6,0,.4,0,.8.1,1.2-.2,0-.3,0-.4,0,0,0,0,0-.1-.1,0-.2,0-.3,0-.5,0-.2,0-.4,0-.6,0-.3-.2-.4-.4-.4-.1,0-.2,0-.3,0-.1,0-.1,0-.1.1,0,.4,0,.7,0,1.1,0,0,0,.2,0,.2,0,.1,0,.2-.1.2-.4,0-.4,0-.4-.3,0-1,0-2,0-3,0,0,0-.1,0-.2,0,0,0-.1,0,0,.4,0,.8,0,1.3,0,.3,0,.5.2.6.6,0,.2,0,.4,0,.6,0,.2-.2.4-.4.5,0,0,0,0,0,0,0,0,0,0,0,0Z"/>
    <path class="cls-32" d="M66.7,53.2c.3,0,.4.2.5.5,0,.3,0,.6,0,.8,0,.1,0,.2,0,.3,0,.1,0,.1-.1.1-.4,0-.4,0-.4-.4,0-.2,0-.5,0-.7,0-.4-.2-.5-.5-.5q-.4,0-.4.3c0,.4,0,.7,0,1.1,0,.2,0,.2-.2.2-.4,0-.3,0-.3-.3,0-1,0-2,0-3,0,0,0-.1,0-.2,0,0,0,0,.1,0,.4,0,.9,0,1.3,0,.3,0,.5.2.5.5,0,.2,0,.4,0,.7,0,.3-.2.4-.4.5,0,0,0,0-.1,0Z"/>
    <path class="cls-255" d="M32.4,22.1c0,0,.2,0,.2,0,4,0,8,0,12.1,0,0,0,.2,0,.3,0,0,0,0,0,0,.1,0,0-.2.2-.1.3,0,0,0,.1,0,.2-.3.2-.7.5-1,.7,0,0,0,0,0,0,.2-.3.4-.5.6-.8,0,0,0-.1.2-.2,0,0-.2,0-.3,0-1,0-1.9,0-2.9,0-2.2,0-4.4,0-6.6-.1-2.4,0-4.7,0-7.1-.1,0,0,0,0,0,0,0,0,0,0,0,0,1.6,0,3.1,0,4.7,0,0,0,.1,0,.2,0Z"/>
    <path class="cls-32" d="M61.2,55c.1-.6.3-1.3.4-1.9.1-.5.2-1,.4-1.5q0-.2.2-.2c0,0,.2,0,.3,0,.2,0,.2,0,.2.2.2.9.4,1.9.7,2.8,0,.1,0,.3,0,.4,0,0,0,.1,0,.1,0,0,0,0,0,0q-.4,0-.4-.3c0-.1,0-.3,0-.4,0,0,0-.1-.1-.1-.3,0-.5,0-.8,0,0,0-.1,0-.1.1,0,.2,0,.4-.1.6,0,.1,0,.2-.2.2,0,0-.2,0-.3,0Z"/>
    <path class="cls-290" d="M68.8,51.4s0,0,0,0c.2,0,.3,0,.5,0,.1,0,.1.3.2.4.1.4.2.7.4,1.1,0,0,0,0,0-.1.1-.4.3-.8.4-1.2,0-.1,0-.2.2-.1,0,0,.2,0,.3,0,0,0,0,.1,0,.2-.2.6-.4,1.1-.7,1.7,0,.1,0,.2,0,.4,0,.4,0,.8,0,1.1,0,.2,0,.2-.2.2-.4,0-.3,0-.3-.3,0-.4,0-.8,0-1.2,0-.4-.3-.7-.4-1.1-.1-.3-.2-.5-.3-.8,0,0,0-.1,0-.2Z"/>
    <path class="cls-290" d="M33.4,39.2c0-.7-.1-1.4-.2-2.1,0-.8-.1-1.6-.2-2.3,0-.1,0-.1-.2-.1-.6,0-1.2,0-1.8-.1-1.3,0-2.5-.2-3.8-.2,0,0,0,0,0,0,.3,0,.5,0,.8,0,1.7,0,3.4,0,5.1,0,0,0,.2,0,.2,0,0,0,0,0,0,.1,0,1.6,0,3.2,0,4.7,0,0,0,0,0,0Z"/>
    <path class="cls-255" d="M55.1,34.2c.7,0,1.3,0,2,0,0,0,.1,0,.1.1,0,0,0,0,0,0,0,1.6,0,3.1,0,4.7,0,0,0,0,0,.1,0,0,0,0,0,0,0-.5,0-1.1-.1-1.6,0-.9-.1-1.7-.2-2.6,0,0,0,0,0-.1,0-.4,0-.4-.4-.4-1.1,0-2.2-.1-3.2-.2-.5,0-.9,0-1.4,0,0,0,0,0,0,0,1.1,0,2.1,0,3.2,0,0,0,0,0,0,0Z"/>
    <path class="cls-279" d="M47.9,53.2c0-.5,0-1.1,0-1.6,0-.2,0-.2.2-.2.4,0,.3,0,.3.3,0,.9,0,1.7,0,2.6,0,0,0,.1,0,.2,0,0,0,.1.1.1.3,0,.5,0,.8,0,.1,0,.1,0,.1.1,0,0,0,0,0,0q0,.3-.2.3c-.4,0-.7,0-1.1,0-.2,0-.2,0-.2-.2,0-.5,0-1.1,0-1.6Z"/>
    <path class="cls-72" d="M47.2,34.2c.4,0,.8,0,1.2,0,.3,0,.6,0,.9,0,0,0,0,.1,0,.2,0,1.6,0,3.1,0,4.7,0,0,0,.2,0,.2,0-.9-.1-1.8-.2-2.7,0-.6-.1-1.2-.1-1.8,0-.2,0-.2-.2-.2-.6,0-1.3,0-1.9-.1-1,0-1.9-.1-2.9-.2,0,0,0,0,.1,0,1,0,2,0,3.1,0,0,0,0,0,0,0Z"/>
    <path class="cls-279" d="M39.3,34.2c.4,0,.9,0,1.3,0,.3,0,.5,0,.8,0,0,0,0,.1,0,.2,0,1.4,0,2.8,0,4.2,0,0,0,.2,0,.2,0-1.1-.2-2.3-.3-3.4,0-.2,0-.5,0-.7,0-.1,0-.1-.2-.1-.6,0-1.3,0-1.9-.1-1,0-1.9-.1-2.9-.2,0,0,0,0,0,0,1,0,2.1,0,3.1,0,0,0,0,0,0,0Z"/>
    <path class="cls-260" d="M53,5.7c0,0,0,0,0,0,0,0-.2,0-.3,0-.5,0-1.1,0-1.6,0-.4,0-.9,0-1.3,0,0,0,0,0,0,0,0,0,0,0,0,0,0,0,0,0,0,0h0s0,0,0,0c0,0,.1-.1.2-.2.4-.3.8-.5,1.2-.8.1,0,.2-.1.4,0,.4.3.8.6,1.2.9,0,0,0,0,0,0,0,0,0,0,.1,0Z"/>
    <path class="cls-294" d="M64.6,25c2.1,0,4.2,0,6.3,0,0,0,0,0,0,0,0,0-.1,0-.1.2.1,0,0,.2,0,.3,0,.1-.1.3-.3.4,0-.1,0-.3,0-.4,0-.1,0-.2-.2-.2-.4,0-.7,0-1.1,0-1.7,0-3.5-.1-5.2-.2-.8,0-1.6,0-2.5,0,0,0,0,0,0,0,.9,0,1.9,0,2.8,0,0,0,0,0,.1,0Z"/>
    <path class="cls-72" d="M51.1,53.2c0-.5,0-1.1,0-1.6,0-.2,0-.2.2-.2.4,0,.3,0,.3.3,0,1,0,2,0,3,0,0,0,.1,0,.2,0,0,0,.1-.1.1-.4,0-.4,0-.4-.3,0-.5,0-1,0-1.5Z"/>
    <path class="cls-294" d="M37.5,18.7c.3,0,.5,0,.8,0,0,0,0,0,0,.1,0,0-.1,0,0,.2,0,0,0,0,0,.1,0,.2-.2.3-.3.5,0-.1,0-.3,0-.4,0-.2,0-.2-.2-.2-.6,0-1.2,0-1.8,0-1.9,0-3.9-.1-5.8-.2,0,0,0,0,0,0,0-.1.2,0,.2,0,.5,0,1.1,0,1.6,0,1.8,0,3.6,0,5.4,0,0,0,.2,0,.3,0Z"/>
    <path class="cls-44" d="M52.9,20.1c0-2-.2-3.9-.2-5.9,0-.1,0-.2-.2-.2-.8,0-1.5-.2-2.3-.3,0,0,0,0,0,0,.2,0,.4,0,.5,0,.3,0,.7,0,1,0,.4,0,.7,0,1.1,0,.1,0,.2,0,.2.2,0,2,0,4,0,6,0,0,0,.1,0,.1Z"/>
    <path class="cls-279" d="M49.4,19.7c0-.7,0-1.4,0-2.1,0-1.1,0-2.1-.1-3.2,0,0,0,0,0,0,0-.1,0-.1-.1-.1-.3,0-.6.1-.9.2,0,0,0,0,0,0,.4-.2.9-.4,1.3-.6.1,0,0,.2,0,.2,0,1.6,0,3.3,0,4.9,0,.3,0,.5,0,.8,0,0,0,0,0,0Z"/>
    <path class="cls-203" d="M53.4,13.9c.4.2.7.3,1.1.5,0,0,0,.1,0,.2,0,1.8,0,3.5,0,5.3,0,0,0,.2,0,.2,0-1.3,0-2.6-.1-3.8,0-.5,0-1,0-1.4,0-.1,0-.2-.1-.2-.3-.2-.6-.4-.8-.6,0,0,0,0,.1,0Z"/>
    <path class="cls-213" d="M51.2,7.6c.8,0,1.6,0,2.4,0,0,0,0,.1-.1.1-.2.1-.3.3-.3.5,0,.5-.2,1-.2,1.5-.1-.2,0-.3,0-.5,0-.4,0-.8,0-1.2,0-.1,0-.2-.1-.2-.4,0-.8,0-1.2-.1-.5,0-1,0-1.6-.1,0,0,0,0,0,0,.2,0,.5,0,.7,0,.1,0,.3,0,.4,0,0,0,0,0,0,0Z"/>
    <path class="cls-213" d="M52.8,13.1c0-.8-.2-1.6-.2-2.4,0-.2,0-.2-.2-.2-.4,0-.9,0-1.3-.1-.3,0-.5,0-.8-.1,0,0,0,0,0,0,.3,0,.6,0,.9,0,.5,0,1,0,1.5,0,.2,0,.2,0,.2.2,0,.4,0,.7,0,1.1,0,.5,0,1.1,0,1.6,0,0,0,0,0,0Z"/>
    <path class="cls-10" d="M52.8,24.4c0-.6-.1-1.3-.2-1.9,0-.2,0-.3,0-.5,0-.1,0-.2-.2-.2-.4,0-.8,0-1.2-.1-.3,0-.5,0-.8-.1,0,0,0,0,0,0,.4,0,.8,0,1.2,0,.4,0,.8,0,1.2,0,0,0,0,0,0,0,0,.4,0,.8,0,1.2,0,.5,0,1.1,0,1.6,0,0,0,0,0,0Z"/>
    <path class="cls-213" d="M49.2,9.6c-.2-.4-.4-.8-.6-1.2q-.1-.2-.4-.2c-.5.1-1,.2-1.4.3,0,0,0,0,0,0,.7-.3,1.4-.6,2.2-.9,0,.1,0,.2,0,.3,0,.1,0,.2,0,.3.1.4.3.8.4,1.3,0,0,0,0,0,0Z"/>
    <path class="cls-72" d="M31.2,13.5c0,0,.2,0,.2,0,.3,0,.5-.3.4-.5,0-.3-.3-.5-.6-.4,0,0-.1,0-.2,0,0,0,0,0,0,0,.2-.2.5-.3.8-.2.3,0,.4.3.5.6,0,.3,0,.5-.3.7-.3.2-.7.1-.9-.1,0,0,0,0,0,0Z"/>
    <path class="cls-72" d="M54.1,7.8c.7.3,1.3.6,2,.9,0,0,0,0-.1,0-.3,0-.4.2-.5.4-.2.4-.4.7-.6,1,0,0,0,0,0,0,.2-.4.3-.8.5-1.3q0-.2,0-.3c-.4-.3-.8-.5-1.1-.8,0,0,0,0,0,0Z"/>
    <path class="cls-294" d="M63.8,19.8c0,0,.1,0,.2,0,.3,0,.5-.2.5-.4,0-.2-.1-.5-.3-.5,0,0-.1,0-.2,0,0,0,0,0-.1,0,0,0,0,0,0,0,0,0,0,0,0,0h0s0,0,0,0c.3-.3.7-.2,1,0,.3.3.3.7,0,1-.3.3-.7.3-1,0,0,0,0,0,0,0,0,0,0,0,0,0Z"/>
    <path class="cls-213" d="M52.8,5.6c-.4-.3-.8-.6-1.2-.9-.2-.1-.2-.1-.4,0-.4.3-.8.5-1.2.8,0,0,0,0,0,0,.5-.4.9-.9,1.4-1.3.5.5.9,1,1.4,1.4,0,0,0,0,0,0,0,0,0,0,0,0Z"/>
    <path class="cls-20" d="M51.1,7.6c-.1,0-.3,0-.4,0,0,0,0,0,0,0h.3c0,0,0-.1-.1-.1,0,0,0,0,0,0,0,0,0,0,0,0h0c0,0,0-.1-.1-.2,0,0,0-.2,0-.2,0,0,0-.1,0-.2.2-.2.4-.3.6-.2.2,0,.4.3.4.6,0,0,0,.1,0,.2,0,0,0,0,0,0,0,0,0,0,0,0,0,0,0,0,0,0,0,0,0,0-.1,0,0,0-.2,0-.3,0Z"/>
    <path class="cls-294" d="M50.4,11.1c0-.4.5-.6.9-.6.4,0,.7.4.7.8,0,.7,0,1.4,0,2.1,0,0,0,.1-.1.1,0,0,0-.2,0-.3,0-.6,0-1.1,0-1.7,0-.3-.3-.5-.6-.5-.3,0-.5,0-.7.3,0,0,0,.1-.1.1,0,0,0-.1,0-.2Z"/>
    <path class="cls-294" d="M50.4,22.5c.1-.4.5-.6.9-.6.4,0,.7.4.7.8,0,.7,0,1.4,0,2.1,0,0,0,.1-.1.1,0,0,0-.2,0-.3,0-.6,0-1.2,0-1.7-.2-.5-.5-.7-.9-.5-.1,0-.2.1-.3.2,0,0,0,.1-.2.1,0,0,0-.1,0-.2Z"/>
    <path class="cls-307" d="M51.1,5.8c.6,0,1.1,0,1.7,0,0,0,.2,0,.3,0,.2,0,.4,0,.7,0,0,0,0,0,0,0-.2.1-.2.3-.3.5,0,.3,0,.5-.1.8,0,0,0,0,0,0,0,0,0-.2,0-.3,0-.2,0-.5,0-.7,0,0,0-.1-.1-.1-.4,0-.8,0-1.2,0-.5,0-1,0-1.5-.1,0,0,0,0,0,0,.2,0,.4,0,.6,0Z"/>
    <path class="cls-196" d="M71.3,37.1c0,0,0-.2,0-.3,0-3.1,0-6.3,0-9.4,0-.3,0-.3-.3-.3,0,0-.2,0-.3,0,.2,0,.3,0,.5,0,0,0,.1,0,.1.1,0,0,0,.1,0,.2,0,3.4,0,6.8,0,10.3,0,.2,0,.3,0,.5,0-.2-.1-.4,0-.6,0-.1,0-.2,0-.4Z"/>
    <path class="cls-181" d="M49.4,23.7c0-.5,0-1.1-.1-1.6,0-.2,0-.2-.2-.2-.3,0-.6.1-.9.2,0,0,0,0,0,0,.4-.2.9-.4,1.3-.6v2.1s0,.1,0,0Z"/>
    <path class="cls-181" d="M49.4,12.3c0-.6,0-1.2-.1-1.8-.3,0-.7.2-1,.2,0,0,0,0,0,0,.4-.2.8-.4,1.2-.5,0,0,0,0,0,0,0,0,0,0,0,0,0,.7,0,1.4,0,2.2,0,0,0,0,0,0Z"/>
    <path class="cls-38" d="M53.4,10.3c.3.1.6.3,1,.4.1,0,.1.1.1.2,0,.3,0,.6,0,.9,0,.4,0,.8,0,1.2,0,0,0,0,0,0,0-.6,0-1.3-.1-1.9,0-.2,0-.2-.2-.3-.3-.2-.5-.3-.8-.5,0,0,0,0,0,0Z"/>
    <path class="cls-244" d="M37.5,18.7c0,0-.2,0-.3,0-2.3,0-4.6,0-6.9,0,0,0-.2,0-.3,0-.5,0-1.1,0-1.6,0,0,0,0,0,0,0,1,0,2,0,3,0,0,0,0,0,.1,0,1.4,0,2.8,0,4.2,0,.5,0,1,0,1.4,0,0,0,.2,0,.2,0Z"/>
    <path class="cls-38" d="M53.5,21.7c.3.1.7.3,1,.4.1,0,0,.2,0,.2,0,.7,0,1.3,0,2,0,0,0,0,0,0,0,0,0,0,0,0,0-.6,0-1.3-.1-1.9,0-.2,0-.3-.2-.3-.3-.1-.5-.3-.8-.5,0,0,0,0,0,0Z"/>
    <path class="cls-136" d="M52.9,20.1c0,0,0-.2,0-.3,0-1.7,0-3.4,0-5.1,0-.3,0-.5,0-.8,0-.2,0-.2-.2-.2-.3,0-.6,0-.9,0,0,0,0,0-.1,0,.4,0,.8,0,1.1,0,.1,0,.1,0,.1.1,0,0,0,0,0,0,0,2.3,0,4.7,0,7,0,0,0,.2,0,.3,0,0,0,0,0,0,0-.4,0-.8,0-1.2Z"/>
    <path class="cls-322" d="M59.1,39.8c0-.1,0-.3,0-.4,0-2,0-4,0-6.1,0-.3,0-.6,0-.9,0-.2,0-.2-.2-.2,0,0-.2,0-.2,0q.5,0,.5.5c0,2.4,0,4.8,0,7.2,0,.1,0,.3,0,.4,0,0,0,0,0,0,0-.2,0-.3,0-.5Z"/>
    <path class="cls-310" d="M49.5,19.7c0-.1,0-.2,0-.3,0-1.8,0-3.6,0-5.4,0,0,0-.2,0-.3,0,0,0,0,0,0,0,0,0,0,0,.1,0,2.4,0,4.8,0,7.2,0,0,0,.1,0,.2,0-.2,0-.5,0-.7,0,0,0-.2,0-.3,0,0,0-.1,0-.2,0-.1,0-.3,0-.4Z"/>
    <path class="cls-123" d="M62,39c0-.8,0-1.6,0-2.5,0-1,0-2,0-3,0-.1,0-.3,0-.4,0,.2,0,.3,0,.5,0,2.3,0,4.6,0,6.9,0,0,0,.2,0,.3,0-.2,0-.3,0-.5,0-.1,0-.2,0-.3,0,0,0-.2,0-.3,0-.2,0-.4,0-.7Z"/>
    <path class="cls-179" d="M54.5,20.1c0,0,0-.1,0-.2,0-1.8,0-3.6,0-5.4,0,0,0,0,0,0,0,0,0,0,0,.1,0,.2,0,.3,0,.5,0,1.9,0,3.8,0,5.7,0,.2,0,.4,0,.5,0,0,0,0,0,0,0-.4,0-.8,0-1.2Z"/>
    <path class="cls-329" d="M32.4,22.1c0,0-.2,0-.3,0-1.5,0-3,0-4.6,0-.1,0-.2,0-.3,0-.5,0-1,0-1.4,0-.3,0-.6,0-.9,0,0,0,0,0,0,0,.3,0,.6,0,.9,0,0,0,.2,0,.3,0,2,0,4,0,6.1,0,0,0,.2,0,.3,0Z"/>
    <path class="cls-142" d="M51.8,4.1c0-.2,0-.4-.1-.6,0-.1,0-.2-.2-.2-.3,0-.5-.1-.8-.2,0,0,0,0,0,0,0,0,0,0,0,0,.3,0,.7,0,1,0,.2,0,.2,0,.2.2,0,.2,0,.4,0,.6,0,0,0,.2,0,.2Z"/>
    <path class="cls-26" d="M29.7,23.8c0,0-.2,0-.3,0-1.3,0-2.5,0-3.8,0,0,0-.2,0-.3,0-.1,0-.2,0-.3,0-.1,0-.2,0-.3,0,0,0-.2,0-.3,0-.2,0-.4,0-.6,0,0,0-.2,0-.3,0,0,0,0,0,0,0,0,0,0,0,0,0,0,0,.1,0,.2,0,2,0,3.9,0,5.9,0,0,0,.1,0,.2,0Z"/>
    <path class="cls-331" d="M49.2,39.3c0,0,0-.1,0-.2,0-1.6,0-3.2,0-4.8,0,0,0,0,0,0,0,0,0,.1,0,.2,0,.5,0,1.1,0,1.6,0,1.1,0,2.2,0,3.3,0,.1,0,.3,0,.4,0,0,0,0,0,0,0-.2,0-.4,0-.6Z"/>
    <path class="cls-106" d="M41.3,38.9c0,0,0-.1,0-.2,0-1.5,0-3,0-4.5,0,0,0,0,0,0,0,0,0,.1,0,.2,0,1.6,0,3.1,0,4.7,0,.1,0,.2,0,.4,0,0,0,0,0,0,0-.2,0-.4,0-.6Z"/>
    <path class="cls-149" d="M33.4,39.2c0-1,0-1.9,0-2.9,0-.6,0-1.2,0-1.8,0,0,0-.2,0-.3,0,0,0,.1,0,.2,0,1.7,0,3.4,0,5.1,0,0,0,0,0,.1,0,0,0-.2,0-.3,0,0,0-.1,0-.2Z"/>
    <path class="cls-245" d="M31.6,18.6c-.2,0-.4,0-.6,0-.9,0-1.7,0-2.6,0-.1,0-.2,0-.4,0,0,0-.2,0-.3,0,0,0-.2,0-.2,0-.1,0-.2,0-.4,0h-.6c0,0,0,0,.1,0,1.6,0,3.2,0,4.8,0,0,0,.1,0,.2,0Z"/>
    <path class="cls-285" d="M51.7,7.1s0,0,0,0c0-.3,0-.5-.3-.6-.2,0-.4,0-.6.2,0,0,0,0,0,0,.2-.3.4-.4.7-.3.3.1.4.4.3.7,0,0,0,0,0,0,0,0,0,0,0,0,0,0,0,0,0,0Z"/>
    <path class="cls-129" d="M64.6,25c0,0-.2,0-.3,0-.9,0-1.8,0-2.7,0,0,0-.2,0-.3,0,0,0-.2,0-.3,0-.2,0-.4,0-.6,0h-.5s0,0,0,0c0,0,0,0,0,0,.4,0,.8,0,1.2,0,1,0,2.1,0,3.1,0,0,0,.2,0,.2,0Z"/>
    <path class="cls-241" d="M48.9,22.6c0,0,0,.1,0,.2,0,.7,0,1.3,0,2,0,0,0,.2,0,.2,0,0,0,0,0,0,0-.7,0-1.4,0-2.1,0,0,0-.2.1-.2Z"/>
    <path class="cls-280" d="M48.9,11.2c0,0,0,.1,0,.2,0,.7,0,1.3,0,2,0,0,0,.2,0,.2,0,0,0,0,0,0,0-.7,0-1.4,0-2.1,0,0,0-.2.1-.2Z"/>
    <path class="cls-155" d="M55.1,34.2c0,0-.2,0-.3,0-.9,0-1.9,0-2.8,0,0,0-.2,0-.2,0-.3,0-.5,0-.8,0,0,0,0,0,0,0,.3,0,.6,0,.9,0,1,0,1.9,0,2.9,0,0,0,.2,0,.3,0Z"/>
    <path class="cls-16" d="M47.2,34.2c-.1,0-.2,0-.3,0-.9,0-1.8,0-2.7,0,0,0-.2,0-.2,0-.3,0-.5,0-.8,0,0,0,0,0,0,0,.2,0,.5,0,.7,0,1,0,2,0,3,0,0,0,.2,0,.3,0Z"/>
    <path class="cls-140" d="M39.3,34.2c-.2,0-.3,0-.5,0-.9,0-1.7,0-2.6,0,0,0-.2,0-.2,0-.2,0-.5,0-.7,0,0,0,0,0,0,0,.3,0,.6,0,.9,0,1,0,1.9,0,2.9,0,0,0,.2,0,.3,0Z"/>
    <path class="cls-226" d="M53.5,13.6c0,0,0,0,0-.1,0-.7,0-1.4,0-2.1,0,0,0,0,0,0,0,0,0,0,0,0,0,0,0,.1,0,.2,0,.7,0,1.3,0,2,0,0,0,0,0,0Z"/>
    <path class="cls-118" d="M53.4,25s0,0,0-.2c0-.7,0-1.3,0-2,0,0,0-.1,0-.2,0,0,0,0,0,.1,0,0,0,.1,0,.2,0,.6,0,1.3,0,1.9,0,0,0,0,0,0,0,0,0,0,0,0Z"/>
    <path class="cls-148" d="M25.8,22.1c-.3,0-.6,0-.9,0-.1,0-.2,0-.3,0-.1,0-.3,0-.4,0-.1,0-.3,0-.4,0-.1,0-.3,0-.4,0-.2,0-.3,0-.5,0-.2,0-.4,0-.6,0h-.6c0,0,.2,0,.2,0,1.3,0,2.5,0,3.8,0,0,0,.2,0,.2,0Z"/>
    <path class="cls-107" d="M20.5,28.8c-.3,0-.5,0-.8,0-.5,0-1.1,0-1.6,0-.2,0-.3,0-.5,0-.3,0-.6,0-.9,0,0,0-.2,0-.2,0,0,0,0,0,0,0,0,0,0,0,0,0,.1,0,.3,0,.4,0,1.1,0,2.3,0,3.4,0,0,0,.2,0,.2,0Z"/>
    <path class="cls-38" d="M51.1,1.8c0,0,.1,0,.2,0,.2.1.3.3.2.5,0,.1-.2.2-.4.1,0,0,0,0,0,0,.1,0,.2-.1.2-.3,0-.1-.1-.2-.3-.2,0,0,0,0,0,0,0,0,0,0,0,0Z"/>
    <path class="cls-236" d="M16,31.7c-.5,0-.9,0-1.4,0-.2,0-.4,0-.6,0,0,0-.1,0-.2,0-.3,0-.7,0-1,0,.2,0,.4,0,.6,0,.6,0,1.2,0,1.8,0,.3,0,.6,0,.8,0Z"/>
    <path class="cls-77" d="M51.9,11.4s0,0,0,.1c0,.7,0,1.3,0,2-.5,0-1,0-1.5,0,0,0,0,0,0,0,.2,0,.4,0,.6,0,.1,0,.3,0,.4,0,.3,0,.3,0,.3-.3,0-.5,0-.9,0-1.4,0-.1,0-.2,0-.3Z"/>
    <path class="cls-98" d="M51.9,22.8s0,0,0,.1c0,.7,0,1.3,0,2-.5,0-1,0-1.5,0,0,0,0,0,0,0,.3,0,.5,0,.8,0,0,0,.2,0,.3,0,.2,0,.3,0,.3-.3,0-.5,0-1,0-1.4,0-.1,0-.2,0-.3Z"/>
    <path class="cls-120" d="M53.5,22.8s0,0,0-.1c0-.2.2-.3.4-.1.1,0,.2.2.2.3,0,0,0,.1,0,.2,0,0,0,0-.1,0-.1-.1-.2-.2-.4-.1,0,0,0,0,0,0Z"/>
    <path class="cls-19" d="M48.9,11.2c0,0,0,.1,0,.2-.2,0-.3,0-.4.1,0,0,0,0-.1,0,0,0,0,0,0-.1,0-.2.1-.3.2-.4.2-.1.3,0,.4,0Z"/>
    <path class="cls-120" d="M48.9,22.6c0,0,0,.1,0,.2-.2-.1-.4,0-.5.2,0,0,0,0,0-.1,0-.2.1-.3.2-.4.2-.1.3,0,.4,0Z"/>
    <path class="cls-203" d="M53.5,11.4s0,0,0,0c0-.3.2-.3.4-.1,0,0,.2.2.2.3,0,0,0,0,0,.1,0,0-.1,0-.1,0-.1-.1-.2-.2-.4,0,0,0,0,0,0,0Z"/>
    <path class="cls-225" d="M52.9,24.4c0-.5,0-.9,0-1.4,0,0,0-.2,0-.3,0,.3,0,.5,0,.8,0,.4,0,.8,0,1.2,0,0,0,.2,0,.2,0,0,0-.1,0-.2,0,0,0-.1,0-.2,0,0,0-.1,0-.2Z"/>
    <path class="cls-3" d="M50.4,24.8s0,0,0,0c0,0,0,0,0-.1,0-.7,0-1.4,0-2.1,0,0,0-.1,0-.2,0,0,0,.1,0,.2,0,0,0,0,0,.1,0,.6,0,1.1,0,1.7,0,0,0,.2,0,.3Z"/>
    <path class="cls-3" d="M50.4,13.4s0,0,0,0c0,0,0,0,0-.1,0-.7,0-1.4,0-2.1,0,0,0-.1,0-.2,0,0,0,.1,0,.2,0,0,0,0,0,.2,0,.6,0,1.1,0,1.7,0,0,0,.2,0,.3Z"/>
    <path class="cls-207" d="M52.9,13.1c0-.5,0-1,0-1.4,0,0,0-.2,0-.3,0,.3,0,.7,0,1,0,.3,0,.6,0,.9,0,0,0,.2,0,.2,0,0,0-.2,0-.2,0,0,0-.2,0-.3Z"/>
    <path class="cls-180" d="M54.5,13.1c0-.3,0-.6,0-1,0,0,0-.2,0-.2,0,.2,0,.4,0,.6,0,.5,0,1,0,1.5,0,0,0,0,0,0,0,0,0-.2,0-.3,0,0,0-.2,0-.2,0,0,0,0,0-.1,0,0,0-.2,0-.3Z"/>
    <path class="cls-125" d="M54.5,24.5c0-.5,0-1,0-1.6,0-.2,0-.4,0-.5,0,0,0-.2,0-.2.1,0,0,0,0,.2,0,.3,0,.7,0,1,0,.4,0,.8,0,1.1,0,0,0,0,0,0Z"/>
    <path class="cls-276" d="M48.3,13.8s0,0,0,0c0,0,0,0,0,0,0-.7,0-1.3,0-2,0,0,0,0,0,0,0,.1,0,.2,0,.3,0,.5,0,1.1,0,1.6,0,0,0,0,0,.1Z"/>
    <path class="cls-276" d="M48.2,25.2c0-.7,0-1.4,0-2.1,0,0,0,0,0,0,0,0,0,.2,0,.2,0,.5,0,1,0,1.5,0,0,0,.2,0,.2,0,0,0,0,0,0Z"/>
    <path class="cls-162" d="M54.1,11.8c0,.7,0,1.4,0,2,0,0,0,0,0,0,0,0,0-.1,0-.2,0-.5,0-1,0-1.5,0,0,0-.2,0-.2,0,0,0,0,0,0Z"/>
    <path class="cls-162" d="M54.1,23.2c0,.7,0,1.4,0,2,0,0,0,0,0,0,0,0,0-.2,0-.3,0-.5,0-1,0-1.4,0,0,0-.2,0-.3,0,0,0,0,0,0Z"/>
    <path class="cls-243" d="M51.7,21.5c-.4,0-.7,0-1.1,0,0,0-.2,0-.2,0-.2,0-.3,0-.5,0,0,0,0,0,0,0,0,0,0,0,0,0,.6,0,1.2,0,1.8,0Z"/>
    <path class="cls-111" d="M43.9,34.2c-.2,0-.5,0-.7,0,0,0,0,0-.1,0,0,0,0,0-.1,0,0,0-.1,0-.2,0-.2,0-.3,0-.5,0,.5,0,1,0,1.6,0,0,0,0,0,0,0Z"/>
    <path class="cls-167" d="M36.1,34.2c-.3,0-.6,0-.9,0,0,0,0,0-.1,0,0,0-.1,0-.2,0,0,0-.2,0-.3,0h-.3s0,0,0,0c0,0,.1,0,.2,0,.5,0,1,0,1.4,0,0,0,.1,0,.2,0Z"/>
    <path class="cls-318" d="M14.5,28.7c.6,0,1.1,0,1.7,0,0,0,0,0,.1,0-.2,0-.4,0-.6,0-.1,0-.3,0-.4,0-.1,0-.2,0-.4,0-.1,0-.3,0-.4,0,0,0,0,0,0,0Z"/>
    <path class="cls-286" d="M52,34.2c-.3,0-.6,0-.9,0,0,0-.1,0-.2,0,0,0-.1,0-.2,0,0,0-.2,0-.3,0,0,0,0,0-.1,0,0,0,0,0,0,0,0,0,0,0,0,0,.5,0,1.1,0,1.6,0,0,0,0,0,.1,0Z"/>
    <path class="cls-97" d="M11.2,31.6c.6,0,1.1,0,1.7,0-.2,0-.5,0-.7,0,0,0-.1,0-.2,0,0,0-.2,0-.2,0-.2,0-.3,0-.5,0,0,0,0,0,0,0,0,0,0,0,0,0Z"/>
    <path class="cls-66" d="M51.2,10.1c-.2,0-.5,0-.7,0,0,0-.2,0-.2,0-.2,0-.3,0-.5,0,0,0,0,0,0,0,0,0,0,0,0,0,.5,0,.9,0,1.4,0Z"/>
    <path class="cls-86" d="M28.1,34.2c-.3,0-.6,0-.8,0,0,0-.1,0-.2,0,0,0-.1,0-.2,0,0,0-.2,0-.2,0,0,0,0,0-.1,0,0,0,0,0,0,0,0,0,0,0,0,0,.5,0,1,0,1.5,0,0,0,0,0,.1,0Z"/>
    <path class="cls-2" d="M25.7,22.2c.5,0,1,0,1.5,0,0,0,0,0,0,0,0,0,0,0,0,0-.5,0-1,0-1.5,0Z"/>
    <path class="cls-180" d="M54.5,24.5s0,0,0,0c0,.3,0,.7,0,1-.1-.1,0-.3,0-.4,0,0,0-.2,0-.3,0,0,0-.2,0-.3,0,0,0,0,0,0Z"/>
    <path class="cls-89" d="M51.1,5.8c-.2,0-.4,0-.6,0,0,0-.1,0-.2,0-.1,0-.2,0-.3,0-.1,0-.2,0-.3,0,0,0,0,0,0,0,0,0,0,0,0,0,.5,0,.9,0,1.4,0Z"/>
    <path class="cls-302" d="M50.7,7.5s0,0,0,0c-.2,0-.5,0-.7,0,0,0-.1,0-.2,0,0,0-.2,0-.2,0,0,0-.1,0-.2,0,0,0,0,0,0,0,0,0,0,0,0,0,.4,0,.7,0,1.1,0,0,0,.2,0,.3,0Z"/>
    <path class="cls-252" d="M8.7,31.6s0,0,0,0c0,0,0,0,0,0,0,0,0,0,0,0,.4,0,.8,0,1.2,0,0,0,.1,0,.2,0,0,0,0,0-.1,0,0,0-.2,0-.3,0-.1,0-.2,0-.3,0-.2,0-.4,0-.5,0Z"/>
    <path class="cls-55" d="M49.4,12.3s0,0,0,0c0,.3,0,.5,0,.8,0,0,0,0,0,0,0-.3,0-.5,0-.8Z"/>
    <path class="cls-11" d="M50.7,13.7c-.2,0-.4,0-.6,0,0,0,0,0-.1,0-.1,0-.2,0-.3,0,.3,0,.7,0,1,0Z"/>
    <path class="cls-182" d="M49.4,23.7s0,0,0,0c0,.2,0,.5,0,.7,0,0,0,0,0,0,0-.2,0-.4,0-.6Z"/>
    <path class="cls-32" d="M12.2,31.7c.2,0,.5,0,.7,0,.2,0,.3,0,.5,0,0,0-.2,0-.3,0,0,0-.2,0-.3,0-.2,0-.4,0-.6,0,0,0,0,0,0,0Z"/>
    <path class="cls-316" d="M27.8,19.8c-.1,0-.3,0-.4,0,0,0,0,0,0,0,0,0,0,0,0,0,.4,0,.7,0,1.1,0,0,0,0,0,0,0-.2,0-.4,0-.6,0Z"/>
    <path class="cls-151" d="M14.5,28.7s0,0,0,0c-.1,0-.2,0-.3,0-.3,0-.5,0-.8,0,0,0,0,0,0,0,0,0,0,0,0,0,.4,0,.7,0,1.1,0Z"/>
    <path class="cls-194" d="M27.8,19.8c.2,0,.3,0,.5,0,0,0,.1,0,.2,0,0,0,0,0,.1,0,0,0,.1,0,.1,0-.3,0-.6,0-.9,0Z"/>
    <path class="cls-15" d="M55.5,28.1s0,0,0,0c.2,0,.3,0,.5.2,0,0,0,0,0,0-.2,0-.4,0-.5-.2Z"/>
    <path class="cls-160" d="M16.7,28.8c.3,0,.6,0,.9,0,0,0,0,0,0,0,0,0,0,0,0,0-.3,0-.6,0-.9,0Z"/>
    <path class="cls-277" d="M52.9,9.2c0,.2,0,.3,0,.5,0,0,0,.1,0,.2,0-.2,0-.5,0-.7Z"/>
    <path class="cls-139" d="M15.6,28.8c.2,0,.4,0,.7,0,0,0,.1,0,.2,0,0,0,0,0,0,0-.3,0-.6,0-.8,0,0,0,0,0,0,0Z"/>
    <path class="cls-326" d="M11.2,31.6s0,0,0,0c0,0-.2,0-.3,0-.2,0-.3,0-.5,0,0,0,0,0,0,0,0,0,0,0,0,0,.3,0,.5,0,.8,0Z"/>
    <path class="cls-254" d="M53.3,6.9v.3s0,0,0,.1c0,0,0,.1,0,.2,0-.2,0-.4,0-.6Z"/>
    <path class="cls-130" d="M14.1,28.8c.1,0,.2,0,.3,0,.1,0,.3,0,.4,0,0,0,0,0,0,0,0,0,0,0,0,0-.3,0-.5,0-.8,0Z"/>
    <path class="cls-73" d="M11.9,28.8c-.1,0-.3,0-.4,0,.2,0,.3,0,.5,0,0,0,0,0,0,0Z"/>
    <path class="cls-24" d="M62,39c0,.2,0,.5,0,.7,0,0,0,0,0,0,0-.2,0-.5,0-.7,0,0,0,0,0,0Z"/>
    <path class="cls-135" d="M23.7,23.8c.2,0,.4,0,.7,0,0,0,0,0,0,0,0,0,0,0,0,0-.2,0-.4,0-.7,0Z"/>
    <path class="cls-54" d="M27.4,17.7s0,0,0,0c0,0-.2.2-.3.2,0,0,0,0,0,0,0,0,0,0,0,0,0,0,0,0,0,0,0,0,.2-.2.3-.2Z"/>
    <path class="cls-132" d="M22.2,22.1c.2,0,.4,0,.6,0,0,0,0,0,0,0,0,0,0,0,0,0-.2,0-.3,0-.5,0,0,0-.1,0-.1,0Z"/>
    <path class="cls-197" d="M60,24s0,0,0,0c0,0-.2.2-.3.2,0,0,0,0,0,0,0,0,0,0,0,0,0,0,0,0,0,0,0,0,.2-.2.3-.2Z"/>
    <path class="cls-33" d="M50.8,6.9c0,0,0,.2,0,.3,0,0,0,0,0,0,0-.1-.1-.3,0-.4,0,0,0,0,0,0Z"/>
    <path class="cls-191" d="M60.5,25c.2,0,.4,0,.6,0,0,0,0,0,0,0,0,0,0,0,0,0-.2,0-.4,0-.6,0Z"/>
    <path class="cls-201" d="M8.7,31.6c.2,0,.4,0,.6,0,0,0,0,0,0,0,0,0,0,0,0,0-.2,0-.4,0-.6,0Z"/>
    <path class="cls-40" d="M70.1,24.4s0,0,0,0c0,0,.2,0,.2.2,0,0,0,0,0,0-.1,0-.2,0-.3-.2Z"/>
    <path class="cls-13" d="M51.8,4.1c0,0,0-.2,0-.2,0,.1,0,.3,0,.5,0-.1,0-.2,0-.2Z"/>
    <path class="cls-293" d="M11.2,31.7c.2,0,.3,0,.5,0,0,0,0,0,0,0,0,0,0,0,0,0-.2,0-.3,0-.5,0,0,0,0,0,0,0Z"/>
    <path class="cls-138" d="M17.7,28.8s0,0,0,0c.2,0,.3,0,.5,0,0,0,0,0,0,0-.2,0-.3,0-.5,0Z"/>
    <path class="cls-235" d="M37.7,18.2c0,0,.2,0,.2.2,0,0,0,0,0,0,0,0,0,0,0,0-.1,0-.2,0-.3-.2,0,0,0,0,0,0Z"/>
    <path class="cls-189" d="M49.2,9.6s0,0,0,0c0,0,0,.2,0,.3,0,0,0,0,0,0,0,0,0-.1,0-.2Z"/>
    <path class="cls-229" d="M22.8,22.1s0,0,0,0c.2,0,.3,0,.5,0,0,0,0,0,0,0,0,0,0,0,0,0-.2,0-.3,0-.5,0Z"/>
    <path class="cls-110" d="M12.6,28.7c.2,0,.3,0,.5,0,0,0,0,0,0,0,0,0,0,0,0,0-.2,0-.3,0-.5,0,0,0,0,0,0,0,0,0,0,0,0,0Z"/>
    <path class="cls-42" d="M8.7,31.6s0,0,0,0c-.2,0-.3,0-.5,0,0,0,0,0,0,0,0,0,0,0,0,0,.2,0,.3,0,.5,0Z"/>
    <path class="cls-317" d="M59.6,24.4c0,0,.1-.1.2-.2,0,0,0,0,0,0,0,0,0,0,0,0,0,0,0,0,0,0,0,0-.1.1-.2.2,0,0,0,0,0,0Z"/>
    <path class="cls-184" d="M51.1,7.6c0,0,0,0,.1,0,0,0,.1,0,.2,0,0,0,0,0,0,0,0,0-.1,0-.2,0,0,0,0,0-.1,0,0,0,0,0,0,0Z"/>
    <path class="cls-67" d="M23.3,22.1s0,0,0,0c.1,0,.3,0,.4,0,0,0,0,0,0,0,0,0,0,0,0,0-.1,0-.3,0-.4,0Z"/>
    <path class="cls-182" d="M49.5,19.7c0,.1,0,.3,0,.4,0,0,0,0,0,0,0-.1,0-.3,0-.4,0,0,0,0,0,0Z"/>
    <path class="cls-282" d="M48.7,13.7c0,0-.2,0-.2.1,0,0,0,0,0,0,0,0,.1-.1.2-.1,0,0,0,0,0,0,0,0,0,0,0,0Z"/>
    <path class="cls-157" d="M23.7,22.1s0,0,0,0c.1,0,.3,0,.4,0,0,0,0,0,0,0,0,0,0,0,0,0-.1,0-.3,0-.4,0Z"/>
    <path class="cls-65" d="M8.2,31.6s0,0,0,0c-.1,0-.2,0-.4,0,.1,0,.2,0,.4,0Z"/>
    <path class="cls-68" d="M12.6,28.7s0,0,0,0c-.1,0-.3,0-.4,0,0,0,0,0,0,0,0,0,0,0,0,0,.1,0,.3,0,.4,0Z"/>
    <path class="cls-115" d="M24.1,22.1s0,0,0,0c.1,0,.3,0,.4,0,0,0,0,0,0,0,0,0,0,0,0,0-.1,0-.3,0-.4,0Z"/>
    <path class="cls-321" d="M22.9,23.8h-.4c.1,0,.2,0,.4,0,0,0,0,0,0,0,0,0,0,0,0,0Z"/>
    <path class="cls-80" d="M48.3,11.8s0,0,0,0c0,0,0-.2,0-.3,0,0,0,0,0,0,0,0,0,.1,0,.2Z"/>
    <path class="cls-128" d="M53.4,10.3s0,0,0,0c0,0,0,0-.1,0,0,0,0,0,0,0,0,0,.2,0,.2.1Z"/>
    <path class="cls-46" d="M14.9,28.8s0,0,0,0c.1,0,.2,0,.4,0,0,0,0,0,0,0-.1,0-.2,0-.4,0Z"/>
    <path class="cls-51" d="M15.3,28.8s0,0,0,0c.1,0,.2,0,.4,0,0,0,0,0,0,0-.1,0-.2,0-.4,0Z"/>
    <path class="cls-220" d="M28,18.6c.1,0,.2,0,.4,0,0,0,0,0,0,0-.1,0-.2,0-.4,0,0,0,0,0,0,0,0,0,0,0,0,0Z"/>
    <path class="cls-111" d="M27.2,18.6c.1,0,.3,0,.4,0,0,0,0,0,0,0,0,0,0,0,0,0-.1,0-.3,0-.4,0Z"/>
    <path class="cls-173" d="M53.4,13.9s0,0-.1,0c0,0,0,0-.1,0,0,0,0,0,0,0,0,0,.2,0,.2.1Z"/>
    <path class="cls-273" d="M48.8,25c0,0-.2,0-.2.1,0,0,0,0,0,0,0,0,0,0,0,0,0,0,.1,0,.2,0,0,0,0,0,0,0Z"/>
    <path class="cls-278" d="M54.5,21.3s0,0,0,0c0,.1,0,.2,0,.4,0,0,0,0,0,0,0-.1,0-.2,0-.4Z"/>
    <path class="cls-28" d="M71.3,37.1c0,.1,0,.2,0,.4,0-.1,0-.2,0-.4,0,0,0,0,0,0Z"/>
    <path class="cls-188" d="M49.4,13.1s0,0,0,0c0,.1,0,.2,0,.4,0-.1,0-.2,0-.4Z"/>
    <path class="cls-74" d="M69.1,40.1s0,0,0,0c0,.1,0,.2,0,.4,0-.1,0-.3,0-.4Z"/>
    <path class="cls-218" d="M26.9,18.1c0,0,0,0,.1-.1,0,0,0,0,0,0,0,0-.1.1-.2.1,0,0,0,0,0,0,0,0,0,0,0,0Z"/>
    <path class="cls-327" d="M54.9,31.3s0,0,0,0c0,0,0,0-.1,0,0,0,0,0,0,0,0,0,0,0,0,0,0,0,0-.1.1-.1Z"/>
    <path class="cls-147" d="M37.7,18.2s0,0,0,0c0,0-.1,0-.1,0,0,0,0,0,0,0,0,0,0,0,.1,0Z"/>
    <path class="cls-14" d="M59.8,25c-.1,0-.2,0-.3,0,0,0,0,0,0,0,0,0,0,0,0,0,.1,0,.2,0,.3,0,0,0,0,0,0,0,0,0,0,0,0,0Z"/>
    <path class="cls-233" d="M24.5,22.1s0,0,0,0c.1,0,.2,0,.3,0,0,0,0,0,0,0-.1,0-.2,0-.3,0Z"/>
    <path class="cls-248" d="M54,23s0,0,0-.1c0,0,0,.2,0,.3,0,0,0,0,0,0,0,0,0,0,0-.1Z"/>
    <path class="cls-313" d="M48.3,23.1s0,0,0,0c0,0,0-.2,0-.2,0,0,0,0,0,0,0,0,0,.1,0,.1Z"/>
    <path class="cls-91" d="M62,40c0,.1,0,.2,0,.3,0-.1,0-.2,0-.3,0,0,0,0,0,0Z"/>
    <path class="cls-63" d="M50.1,5.8c.1,0,.2,0,.3,0,0,0,0,0,0,0,0,0,0,0,0,0-.1,0-.2,0-.3,0Z"/>
    <path class="cls-253" d="M27.2,22.2s0,0,0,0c.1,0,.2,0,.3,0,0,0,0,0,0,0-.1,0-.2,0-.3,0Z"/>
    <path class="cls-105" d="M11.2,31.7s0,0,0,0c-.1,0-.2,0-.3,0,0,0,.2,0,.3,0,0,0,0,0,0,0Z"/>
    <path class="cls-145" d="M52.9,13.1c0,.1,0,.2,0,.3,0-.1,0-.2,0-.3,0,0,0,0,0,0Z"/>
    <path class="cls-69" d="M59.5,24.9s0,0,0,0c0,0-.2,0-.3,0,0,0,.2,0,.3,0Z"/>
    <path class="cls-182" d="M60.2,27.5s0,0,0,0c-.1,0-.2,0-.3,0,0,0,0,0,0,0,0,0,0,0,0,0,.1,0,.2,0,.3,0Z"/>
    <path class="cls-75" d="M59.2,24.7c0,0,0,.1-.2.1,0,0,0-.1.2-.2,0,0,0,0,0,0Z"/>
    <path class="cls-193" d="M48.2,22s0,0,0,0c0,0-.1,0-.2,0,0,0,0,0,0,0,0,0,.1,0,.2,0Z"/>
    <path class="cls-230" d="M48.2,25.2s0,0,0,0c0,0,0,0,.2,0,0,0,0,0,0,0h0s0,0,0,0c0,0-.1,0-.1,0Z"/>
    <path class="cls-251" d="M24.6,23.8c.1,0,.2,0,.3,0,0,0,0,0,0,0,0,0,0,0,0,0-.1,0-.2,0-.3,0,0,0,0,0,0,0,0,0,0,0,0,0Z"/>
    <path class="cls-146" d="M9.3,31.7s0,0,0,0c.1,0,.2,0,.3,0,0,0,0,0,0,0,0,0,0,0,0,0-.1,0-.2,0-.3,0Z"/>
    <path class="cls-298" d="M54.5,21.6s0,0,0,0c0,0,0,.2,0,.3,0-.1,0-.2,0-.3Z"/>
    <path class="cls-211" d="M13,28.7s0,0,0,0c.1,0,.2,0,.3,0,0,0,0,0,0,0-.1,0-.2,0-.3,0Z"/>
    <path class="cls-330" d="M25,23.9s0,0,0,0c.1,0,.2,0,.3,0,0,0,0,0,0,0-.1,0-.2,0-.3,0Z"/>
    <path class="cls-309" d="M48.1,14.3s0,0,0,0c0,0-.1,0-.2,0,0,0,0,0,0,0,0,0,.1,0,.2,0Z"/>
    <path class="cls-126" d="M54.8,10.2s0,0,0,0c0,0,0,.1,0,.2,0,0,0,0,0,0,0,0,0-.2.1-.2Z"/>
    <path class="cls-144" d="M50,5.4s0,0,0,0c0,0-.1,0-.2.1,0,0,0,0,0,0,0,0,0,0,0,0,0,0,0-.1.1-.1Z"/>
    <path class="cls-174" d="M46.8,8.4s0,0,0,0c0,0,0,0-.1,0,0,0,0,0,0,0,0,0,.1,0,.2,0Z"/>
    <path class="cls-334" d="M10.4,31.6s0,0,0,0c0,0-.2,0-.3,0,0,0,0,0,0,0,0,0,0,0,0,0,0,0,.2,0,.3,0Z"/>
    <path class="cls-292" d="M59.8,25s0,0,0,0c0,0,.2,0,.3,0,0,0,0,0,0,0,0,0-.2,0-.3,0Z"/>
    <path class="cls-242" d="M10.1,31.6s0,0,0,0c0,0-.2,0-.3,0,0,0,0,0,0,0,0,0,0,0,.1,0,0,0,0,0,.1,0Z"/>
    <path class="cls-56" d="M9.9,31.6s0,0,0,0c0,0-.2,0-.3,0,0,0,0,0,0,0,0,0,.2,0,.3,0Z"/>
    <path class="cls-275" d="M22.9,23.8s0,0,0,0c0,0,.2,0,.3,0,0,0,0,0,0,0,0,0,0,0,0,0,0,0-.2,0-.3,0Z"/>
    <path class="cls-92" d="M54,13.8s0,0,0,0c0,0,0,0,0,0,0,0,0,0-.1,0,0,0,0,0,0,0,0,0,0,0,0,0,0,0,.1,0,.1,0Z"/>
    <path class="cls-59" d="M53.1,21.6c0,0,.1,0,.2,0,0,0,0,0,0,0,0,0,0,0-.1,0,0,0,0,0,0,0,0,0,0,0,0,0Z"/>
    <path class="cls-165" d="M54.1,7.8s0,0,0,0c0,0,0,0-.1,0,0,0,0,0,0,0,0,0,.1,0,.2.1Z"/>
    <path class="cls-172" d="M44,21.9s0,0,0,0c0,0,.1,0,.2,0,0,0,0,0,0,0,0,0,0,0-.1,0Z"/>
    <path class="cls-281" d="M24.6,23.8s0,0,0,0c0,0-.2,0-.3,0,0,0,0,0,0,0,0,0,.2,0,.3,0Z"/>
    <path class="cls-231" d="M54.5,14s0,0,0,0c0,0,0,0,0,0,0,0,0,0,0,0,0,0,0,0,0,0,0,0,0,0,0,0Z"/>
    <path class="cls-192" d="M50.4,34.2c0,0,.2,0,.3,0,0,0,0,0,0,0,0,0,0,0,0,0,0,0-.2,0-.3,0Z"/>
    <path class="cls-198" d="M34.6,34.2c0,0,.2,0,.3,0,0,0,0,0,0,0,0,0,0,0,0,0,0,0-.2,0-.3,0Z"/>
    <path class="cls-212" d="M54,11.6s0,0,0-.1c0,0,0,.2,0,.2,0,0,0,0,0,0,0,0,0,0,0-.1Z"/>
    <path class="cls-37" d="M61.1,25s0,0,0,0c0,0,.2,0,.3,0,0,0,0,0,0,0,0,0,0,0,0,0,0,0-.2,0-.3,0Z"/>
    <path class="cls-153" d="M48.2,10.6s0,0,0,0c0,0-.1,0-.2,0,0,0,0,0,0,0,0,0,0,0,.1,0Z"/>
    <path class="cls-85" d="M51.1,2.4s0,0,0,0c0,0,0,0-.1,0,0,0,.1,0,.2,0Z"/>
    <path class="cls-291" d="M54.5,13.1c0,0,0,.2,0,.3,0,0,0,0,0,0,0,0,0-.2,0-.3,0,0,0,0,0,0Z"/>
    <path class="cls-269" d="M26.7,18.3c0,0,0-.1.1-.1,0,0,0,0,0,0,0,0,0,0-.1.1,0,0,0,0,0,0,0,0,0,0,0,0Z"/>
    <path class="cls-259" d="M28,18.6s0,0,0,0c0,0-.2,0-.3,0,0,0,0,0,0,0,0,0,0,0,0,0,0,0,.2,0,.3,0Z"/>
    <path class="cls-158" d="M49.6,5.8c0,0-.2,0-.3,0,0,0,.2,0,.2,0,0,0,0,0,0,0,0,0,0,0,0,0Z"/>
    <path class="cls-125" d="M54.5,24.8c0,0,0,.2,0,.3,0,0,0-.2,0-.3,0,0,0,0,0,0Z"/>
    <path class="cls-287" d="M54.5,24.8s0,0,0,0c0,0,0-.2,0-.3,0,0,0,0,0,0,0,0,0,.2,0,.3Z"/>
    <path class="cls-206" d="M59.3,24.6c0,0,0-.1.1-.1,0,0,0,0,0,0,0,0,0,0,0,0,0,0,0,0-.1.1,0,0,0,0,0,0,0,0,0,0,0,0Z"/>
    <path class="cls-166" d="M51.7,7.1s0,0,0,0c0,0,0,0,0,.1,0,0,0,0,0,0,0,0,0,0,0,0,0,0,0,0,0-.1Z"/>
    <path class="cls-50" d="M53.5,13.6s0,0,0,0c0,0,.1,0,.2,0,0,0,0,0,0,0,0,0-.1,0-.2,0Z"/>
    <path class="cls-258" d="M62,40h0s0,0,0,0c0,0,0-.2,0-.3,0,0,0,0,0,0,0,0,0,.2,0,.3Z"/>
    <path class="cls-163" d="M12.2,28.7s0,0,0,0c0,0-.2,0-.3,0,0,0,0,0,0,0,0,0,.1,0,.2,0Z"/>
    <path class="cls-100" d="M49.5,20.3c0,0,0,.2,0,.3,0,0,0-.2,0-.3,0,0,0,0,0,0Z"/>
    <path class="cls-76" d="M56,28.3s0,0,0,0c0,0,.1,0,.2,0,0,0,0,0,0,0,0,0,0,0,0,0,0,0-.2,0-.2,0Z"/>
    <path class="cls-315" d="M52.9,21.2s0,0,0,0c0,0,0,.2,0,.3,0,0,0,0,0,0h0c0-.1,0-.2,0-.3Z"/>
    <path class="cls-104" d="M61.4,25s0,0,0,0c0,0,.2,0,.3,0,0,0,0,0,0,0,0,0-.2,0-.3,0Z"/>
    <path class="cls-159" d="M26.5,18.5s0,0-.1,0c0,0,0,0,.1-.1,0,0,0,0,0,0,0,0,0,0,0,0Z"/>
    <path class="cls-314" d="M38.1,18.5c0,0-.1,0-.1,0,0,0,0,0,0,0,0,0,0,0,0,0,0,0,0,0,.1,0,0,0,0,0,0,0,0,0,0,0,0,0Z"/>
    <path class="cls-208" d="M53,5.7c0,0,0,0-.1,0,0,0,0,0,0,0,0,0,0,0,.1.1Z"/>
    <path class="cls-71" d="M50.8,6.9s0,0,0,0c0,0,0,0,0,0,0,0,0,0,0,0,0,0,0,0,0,.1Z"/>
    <path class="cls-7" d="M50.8,7.2s0,0,0,0c0,0,0,.1,0,.2,0,0,0,0,0-.1Z"/>
    <path class="cls-87" d="M49.6,7.6h.3s0,0,0,0c0,0,0,0,0,0,0,0-.2,0-.3,0Z"/>
    <path class="cls-222" d="M46.7,8.5s0,0,0,0c0,0,0,0-.1,0,0,0,0,0,0,0,0,0,0,0,.1,0Z"/>
    <path class="cls-283" d="M48,10.7s0,0,0,0c0,0-.1,0-.2,0,0,0,0,0,.1,0Z"/>
    <path class="cls-257" d="M54.5,13.5c0,0,0,.2,0,.2,0,0,0-.1,0-.2,0,0,0,0,0,0Z"/>
    <path class="cls-150" d="M53.9,13.7s0,0,0,0c0,0-.1,0-.2,0,0,0,0,0,0,0,0,0,.1,0,.1,0Z"/>
    <path class="cls-311" d="M23.2,23.8s0,0,0,0c0,0,.2,0,.2,0,0,0,0,0,0,0,0,0-.2,0-.2,0Z"/>
    <path class="cls-295" d="M49.5,24.5c0,0,0,.2,0,.2,0,0,0,0,0,0,0,0,0-.2,0-.2,0,0,0,0,0,0Z"/>
    <path class="cls-224" d="M49.4,24.7s0,0,0,0c0,0,0,.1,0,.2,0,0,0-.1,0-.2Z"/>
    <path class="cls-227" d="M70.8,24.8c0,0,0,0,.1.1,0,0-.1,0-.1,0,0,0,0,0,0,0Z"/>
    <path class="cls-186" d="M48,22.1s0,0,0,0c0,0,0,0-.2,0,0,0,0,0,.1,0Z"/>
    <path class="cls-320" d="M53.9,25.2c0,0-.1,0-.1,0,0,0,0,0,0,0,0,0,.1,0,.2,0,0,0,0,0,0,0Z"/>
    <path class="cls-312" d="M54,25.2s0,0,0,0c0,0,0,0-.1,0,0,0,0,0,0,0,0,0,0,0,0,0,0,0,0,0,0,0Z"/>
    <path class="cls-289" d="M59.9,27.5s0,0,0,0c0,0-.2,0-.2,0,0,0,0,0,0,0,0,0,0,0,0,0,0,0,.2,0,.2,0Z"/>
    <path class="cls-266" d="M11.7,31.7s0,0,0,0c0,0,.2,0,.2,0,0,0,0,0,0,0,0,0-.2,0-.2,0Z"/>
    <path class="cls-154" d="M26.6,34.2s0,0,0,0c0,0-.1,0-.2,0,0,0,.1,0,.2,0Z"/>
    <path class="cls-134" d="M50.3,34.2s0,0,0,0c0,0-.1,0-.2,0,0,0,.1,0,.2,0Z"/>
    <path class="cls-200" d="M26.7,34.2c0,0,.2,0,.2,0,0,0,0,0,0,0,0,0-.2,0-.2,0Z"/>
    <path class="cls-301" d="M44.6,22c0,0,.1,0,.2,0,0,0-.1,0-.2,0,0,0,0,0,0,0,0,0,0,0,0,0Z"/>
    <path class="cls-121" d="M44.1,21.9s0,0,0,0c0,0,0,0,.1,0,0,0,0,0,0,0,0,0-.1,0-.2,0Z"/>
    <path class="cls-127" d="M41.4,39.6s0,0,0,0c0,0,0,.1,0,.2,0,0,0-.1,0-.2Z"/>
    <path class="cls-183" d="M57.2,39.6c0,0,0,.1,0,.2,0,0,0-.1,0-.2,0,0,0,0,0,0Z"/>
    <path class="cls-108" d="M27.2,19.8c0,0-.2,0-.2,0,0,0,0,0,0,0,0,0,0,0,0,0,0,0,.2,0,.2,0,0,0,0,0,0,0,0,0,0,0,0,0Z"/>
    <path class="cls-22" d="M27,19.8s0,0,0,0c0,0-.2,0-.2,0,0,0,0,0,0,0,0,0,0,0,0,0,0,0,.2,0,.2,0Z"/>
    <path class="cls-5" d="M63.8,18.9s0,0,0,0c0,0,0,0-.1.1,0,0,0,0,0,0,0,0,0,0,0,0Z"/>
    <path class="cls-319" d="M40.3,46s-.1,0-.1,0c0,0,0,0,.1,0,0,0,0,0,0,0Z"/>
    <path class="cls-112" d="M62,48.3s0,0,0,.1c0,0,0,0,0,0,0,0,0,0,0,0,0,0,0,0,0,0Z"/>
    <path class="cls-299" d="M27.8,18.6s0,0,0,0c0,0-.2,0-.2,0,0,0,0,0,0,0,0,0,.2,0,.2,0Z"/>
    <path class="cls-195" d="M48,14.3s0,0,0,0c0,0,0,0,0,0,0,0,0,0,0,0,0,0,0,0,0,0Z"/>
    <path class="cls-81" d="M49.5,20.3s0,0,0,0c0,0,0-.1,0-.2,0,0,0,0,0,0,0,0,0,.1,0,.2Z"/>
    <path class="cls-308" d="M49.4,7.5s0,0,0,0c0,0-.1,0-.2,0,0,0,.1,0,.2,0Z"/>
    <path class="cls-49" d="M56.3,28.3s0,0,0,0c0,0,0,0,.1,0,0,0,0,0,0,0,0,0,0,0,0,0,0,0-.1,0-.1,0Z"/>
    <path class="cls-265" d="M56.4,28.4s0,0,0,0c0,0,0,0,.1,0,0,0,0,0,0,0,0,0,0,0,0,0,0,0-.1,0-.1,0Z"/>
    <path class="cls-264" d="M56.5,28.4s0,0,0,0c0,0,0,0,.1,0,0,0,0,0,0,0,0,0,0,0,0,0,0,0-.1,0-.1,0Z"/>
    <path class="cls-170" d="M56.7,28.5s0,0,0,0c0,0,0,0,.1,0,0,0,0,0,0,0,0,0,0,0,0,0,0,0-.1,0-.1,0Z"/>
    <path class="cls-284" d="M56.8,28.5s0,0,0,0c0,0,0,0,.1,0,0,0,0,0,0,0,0,0,0,0,0,0,0,0-.1,0-.1,0Z"/>
    <path class="cls-268" d="M57,28.6s0,0,0,0c0,0,0,0,.1,0,0,0,0,0,0,0,0,0,0,0,0,0,0,0-.1,0-.1,0Z"/>
    <path class="cls-1" d="M57.1,28.6s0,0,0,0c0,0,0,0,.1,0,0,0,0,0,0,0,0,0,0,0,0,0,0,0-.1,0-.1,0Z"/>
    <path class="cls-169" d="M57.2,28.7s0,0,0,0c0,0,0,0,.1,0,0,0,0,0-.1,0Z"/>
    <path class="cls-109" d="M49.9,21.5s0,0,0,0c0,0-.1,0-.1,0,0,0,0,0,.1,0Z"/>
    <path class="cls-214" d="M52.9,24.6c0,0,0,.1,0,.2,0,0,0-.1,0-.2,0,0,0,0,0,0Z"/>
    <path class="cls-239" d="M70.4,24.6s0,0,0,0c0,0,0,0,0,0,0,0,0,0,0,0,0,0,0,0,0,0,0,0,0,0,0,0Z"/>
    <path class="cls-232" d="M53.2,21.7s0,0,0,0c0,0,0,0,0,0,0,0,0,0,0,0,0,0,0,0,0,0Z"/>
    <path class="cls-236" d="M12,31.7s0,0,0,0c0,0,.1,0,.2,0,0,0,0,0,0,0,0,0-.1,0-.2,0Z"/>
    <path class="cls-262" d="M46.5,8.5s0,0,0,0c0,0,0,0-.1,0,0,0,0,0,0,0Z"/>
    <path class="cls-124" d="M53.3,21.7s0,0,0,0c0,0,0,0,0,0,0,0,0,0,0,0,0,0,0,0,0,0Z"/>
    <path class="cls-6" d="M52.9,24.6s0,0,0,0c0,0,0-.1,0-.2,0,0,0,0,0,0,0,0,0,.1,0,.2Z"/>
    <path class="cls-177" d="M27.1,34.2c0,0,.1,0,.2,0,0,0,0,0,0,0,0,0-.1,0-.2,0,0,0,0,0,0,0,0,0,0,0,0,0Z"/>
    <path class="cls-58" d="M50.7,34.2s0,0,0,0c0,0,.1,0,.2,0,0,0,0,0,0,0,0,0,0,0,0,0,0,0-.1,0-.2,0Z"/>
    <path class="cls-238" d="M31.1,12.6s0,0,0,0c0,0,0,0,0,0,0,0,0,0,0,0,0,0,0,0,0,0,0,0,0,0,0-.1Z"/>
    <path class="cls-122" d="M49.3,9.8s0,0,0,0c0,0,0,0,0,.1,0,0,0,0,0,0,0,0,0,0,0,0Z"/>
    <path class="cls-94" d="M44.3,22s0,0,0,0c0,0,0,0,.1,0,0,0,0,0,0,0,0,0,0,0,0,0,0,0-.1,0-.1,0Z"/>
    <path class="cls-263" d="M44.4,22s0,0,0,0c0,0,0,0,.1,0,0,0,0,0,0,0,0,0-.1,0-.1,0Z"/>
    <path class="cls-246" d="M49.4,9.9s0,0,0,0c0,0,0,0,0,0,0,0,0,0,0,0Z"/>
    <path class="cls-95" d="M49.8,10.1s0,0,0,0c0,0-.1,0-.1,0,0,0,0,0,.1,0Z"/>
    <path class="cls-303" d="M49.8,5.7s0,0,0,0c0,0,0,0,0,0,0,0,0-.1,0-.1,0,0,0,0,0,0Z"/>
    <path class="cls-306" d="M54.7,31.5s0,0,0,0c0,0,0,0,0,0,0,0,0,0,0,0,0,0,0,0,0,0Z"/>
    <path class="cls-69" d="M59.5,27.5s-.1,0-.1,0c0,0,0,0,.1,0,0,0,0,0,0,0,0,0,0,0,0,0Z"/>
    <path class="cls-60" d="M26.8,19.8s0,0,0,0c0,0-.1,0-.2,0,0,0,.1,0,.2,0Z"/>
    <path class="cls-43" d="M53.6,25.1c0,0-.1,0-.1,0,0,0,0,0,0,0,0,0,0,0,0,0,0,0,0,0,0,0,0,0,0,0,0,0Z"/>
    <path class="cls-79" d="M27.2,19.8s0,0,0,0c0,0,.1,0,.2,0,0,0,0,0,0,0,0,0-.1,0-.2,0Z"/>
    <path class="cls-204" d="M34.9,34.2s0,0,0,0c0,0,.1,0,.2,0,0,0,0,0,0,0,0,0,0,0,0,0,0,0-.1,0-.2,0Z"/>
    <path class="cls-228" d="M59.1,40.3s0,0,0,0c0,0,0,.1,0,.1,0,0,0,0,0-.1Z"/>
    <path class="cls-17" d="M50.9,34.2s0,0,0,0c0,0,.1,0,.2,0,0,0,0,0,0,0,0,0-.1,0-.2,0Z"/>
    <path class="cls-64" d="M27.1,34.2s0,0,0,0c0,0-.1,0-.2,0,0,0,0,0,0,0,0,0,.1,0,.2,0Z"/>
    <path class="cls-187" d="M33.4,39.2c0,0,0,.1,0,.2,0,0,0-.1,0-.2,0,0,0,0,0,0Z"/>
    <path class="cls-41" d="M51,2s0,0,0,0c0,0,0,0,0,0,0,0,0,0,0,0Z"/>
    <path class="cls-70" d="M53.3,7.3s0,0,0-.1c0,0,0,0,0,0,0,0,0,0,0,.1Z"/>
    <path class="cls-131" d="M50.4,5.9s0,0,0,0c0,0,0,0,.1,0,0,0,0,0,0,0,0,0,0,0-.1,0Z"/>
    <path class="cls-53" d="M59.5,27.5s0,0,0,0c0,0,0,0,.1,0,0,0,0,0,0,0,0,0,0,0-.1,0Z"/>
    <path class="cls-52" d="M70.8,24.8s0,0,0,0c0,0,0,0,0,0,0,0,0,0,0,0,0,0,0,0,0,0h0Z"/>
    <path class="cls-256" d="M49.7,5.8s0,0,0,0c0,0,0,0,0,0,0,0,0,0,0,0,0,0,0,0-.1,0,0,0,0,0,0,0,0,0,0,0,0,0Z"/>
    <path class="cls-212" d="M49.5,24.5s0,0,0,0c0,0,0,0,0,0,0,0,0,0,0-.1,0,0,0,0,0,0,0,0,0,0,0,.1Z"/>
    <path class="cls-274" d="M59.7,43.1s0,0,0,0c0,0,0,0,0,0,0,0,0,0,0,0Z"/>
    <path class="cls-57" d="M64.3,43.2s0,0,0,0c0,0,0,0,0,0,0,0,0,0,0,0Z"/>
    <path class="cls-8" d="M49.3,39.8s0,0,0,0c0,0,0,0,0,.1,0,0,0,0,0-.1Z"/>
    <path class="cls-102" d="M63.7,19.8s0,0,0,0c0,0,0,0,0,0,0,0,0,0,0,0Z"/>
    <path class="cls-90" d="M38.1,18.5s0,0,0,0c0,0,0,0,0,0h0s0,0,0,0Z"/>
    <path class="cls-93" d="M70.6,24.7s0,0,0,0h0s0,0,0,0c0,0,0,0,0,0,0,0,0,0,0,0Z"/>
    <path class="cls-250" d="M50.8,3s0,0,0,0c0,0,0,0,0,0,0,0,0,0,0,0Z"/>
    <path class="cls-161" d="M27.1,18s0,0,0,0c0,0,0,0,0,0,0,0,0,0,0,0h0s0,0,0,0c0,0,0,0,0,0Z"/>
    <path class="cls-168" d="M53.2,13.8s0,0,0,0c0,0,0,0,0,0,0,0,0,0,0,0,0,0,0,0,0,0,0,0,0,0,0,0Z"/>
    <path class="cls-99" d="M53.1,13.8s0,0,0,0c0,0,0,0,0,0,0,0,0,0,0,0Z"/>
    <path class="cls-171" d="M50,13.7s0,0,.1,0c0,0,0,0,0,0,0,0,0,0-.1,0Z"/>
    <path class="cls-304" d="M54.5,13.5s0,0,0,0c0,0,0,0,0-.1,0,0,0,0,0,0,0,0,0,0,0,.1Z"/>
    <path class="cls-175" d="M31,12.7s0,0,0,0c0,0,0,0,0,0,0,0,0,0,0,0,0,0,0,0,0,0Z"/>
    <path class="cls-183" d="M54.7,10.6h0c0,.1,0,.1,0,0,0,0,0,0,0,0,0,0,0,0,0,0Z"/>
    <path class="cls-114" d="M54.7,10.6s0,0,0,0c0,0,0,0,0,0,0,0,0,0,0,0,0,0,0,0,0,0Z"/>
    <path class="cls-202" d="M53.2,10.2s0,0,0,0c0,0,0,0,0,0,0,0,0,0,0,0,0,0,0,0,0,0,0,0,0,0,0,0Z"/>
    <path class="cls-48" d="M53.1,10.2s0,0,0,0c0,0,0,0,0,0,0,0,0,0,0,0Z"/>
    <path class="cls-237" d="M35.1,34.2s0,0,0,0c0,0,0,0,.1,0,0,0,0,0,0,0,0,0,0,0-.1,0Z"/>
    <path class="cls-27" d="M42.7,34.2c0,0,0,0,.1,0,0,0,0,0,0,0,0,0,0,0,0,0,0,0,0,0-.1,0Z"/>
    <path class="cls-209" d="M42.9,34.2s0,0,0,0c0,0,0,0,.1,0,0,0,0,0,0,0,0,0,0,0,0,0,0,0,0,0-.1,0Z"/>
    <path class="cls-152" d="M43,34.2s0,0,0,0c0,0,0,0,.1,0,0,0,0,0,0,0,0,0,0,0-.1,0Z"/>
    <path class="cls-156" d="M51,2s0,0,0,0c0,0,0,0,0,0,0,0,0,0,0,0,0,0,0,0,0,0Z"/>
    <path class="cls-12" d="M53.9,7.7s0,0,0,0c0,0,0,0-.1,0h0s0,0,0,0Z"/>
    <path class="cls-25" d="M53.1,21.6s0,0,0,0c0,0,0,0,0,0,0,0,0,0,0,0Z"/>
    <path class="cls-84" d="M53.8,7.7s0,0,0,0c0,0,0,0,0,0,0,0,0,0,0,0,0,0,0,0,0,0Z"/>
    <path class="cls-270" d="M49.8,7.6s0,0,0,0c0,0,0,0,.1,0,0,0,0,0,0,0,0,0,0,0-.1,0Z"/>
    <path class="cls-47" d="M54.6,10.7s0,0,0,0c0,0,0,0,0,0,0,0,0,0,0,0Z"/>
    <path class="cls-35" d="M63.7,19.8s0,0,0,0c0,0,0,0,0,0,0,0,0,0,0,0,0,0,0,0,0,0Z"/>
    <path class="cls-116" d="M51.5,7.5s0,0,0,0c0,0,0,0,0,0,0,0,0,0,0,0,0,0,0,0,0,0,0,0,0,0,0,0Z"/>
    <path class="cls-117" d="M57.2,39.3s0,0,0,0c0,0,0,0,0,.1,0,0,0,0,0,0,0,0,0,0,0-.1Z"/>
    <path class="cls-300" d="M57.2,39.4s0,0,0,0c0,0,0,0,0,.1,0,0,0,0,0,0,0,0,0,0,0-.1Z"/>
    <path class="cls-133" d="M51.6,7.4s0,0,0,0h0s0,0,0,0c0,0,0,0,0,0,0,0,0,0,0,0,0,0,0,0,0,0Z"/>
    <path class="cls-178" d="M53.8,25.1s0,0,0,0c0,0,0,0,0,0,0,0,0,0,0,0,0,0,0,0,0,0Z"/>
    <path class="cls-324" d="M48.4,25.2s0,0,0,0c0,0,0,0,0,0Z"/>
    <path class="cls-296" d="M63.7,19s0,0,0,0c0,0,0,0,0,0,0,0,0,0,0,0,0,0,0,0,0,0Z"/>
    <path class="cls-5" d="M63.9,18.9s0,0,.1,0c0,0,0,0-.1,0Z"/>
    <path class="cls-223" d="M48.8,13.6s0,0,0,0c0,0,0,0,0,0,0,0,0,0,0,0,0,0,0,0,.1,0Z"/>
    <path class="cls-296" d="M63.7,19.1s0,0,0,0c0,0,0,0,0,0,0,0,0,0,0,0Z"/>
    <path class="cls-272" d="M43.6,23.5s0,0,0,0c0,0,0,0,0,0h0s0,0,0,0Z"/>
    <path class="cls-324" d="M48.5,25.2s0,0,0,0c0,0,0,0,0,0,0,0,0,0,0,0,0,0,0,0,0,0,0,0,0,0,0,0Z"/>
    <path class="cls-210" d="M26.8,18.2s0,0,0,0c0,0,0,0,0,0,0,0,0,0,0,0,0,0,0,0,0,0h0Z"/>
    <path class="cls-82" d="M53.8,13.7s0,0,0,0c0,0,0,0,0,0,0,0,0,0,0,0,0,0,0,0,.1,0Z"/>
    <path class="cls-143" d="M34.1,46s0,0,0,0c0,0,0,0,0,0,0,0,0,0,0,0Z"/>
    <path class="cls-21" d="M53.6,25.1s0,0,0,0c0,0,0,0,0,0,0,0,0,0,0,0,0,0,0,0,0,0Z"/>
    <path class="cls-221" d="M51.6,7.4s0,0,0,0c0,0,0,0,0,0,0,0,0,0,0,0,0,0,0,0,0,0Z"/>
    <path class="cls-205" d="M48.8,25s0,0,0,0c0,0,0,0,.1,0,0,0,0,0,0,0,0,0,0,0,0,0h0Z"/>
    <path class="cls-288" d="M48.8,13.6s0,0,0,0c0,0,0,0,0,0,0,0,0,0,0,0,0,0,0,0,0,0Z"/>
    <path class="cls-190" d="M48.5,13.7s0,0,0,0c0,0,0,0,0,0,0,0,0,0,0,0,0,0,0,0,0,0Z"/>
    <path class="cls-297" d="M52.8,5.6s0,0,0,0c0,0,0,0,0,0,0,0,0,0,0,0,0,0,0,0,0,0Z"/>
    <path class="cls-215" d="M31.1,13.5s0,0,0,0c0,0,0,0,0,0,0,0,0,0,0,0,0,0,0,0,0,0Z"/>
    <path class="cls-332" d="M48.3,13.8s0,0,0,0c0,0,0,0,0,0,0,0,0,0,0,0,0,0,0,0,0,0Z"/>
    <path class="cls-267" d="M31.1,13.5s0,0,0,0c0,0,0,0,0,0,0,0,0,0,0,0,0,0,0,0,0,0h0Z"/>
    <path class="cls-96" d="M70.6,24.7s0,0,0,0c0,0,0,0,0,0,0,0,0,0,0,0,0,0,0,0,0,0Z"/>
    <path class="cls-4" d="M59.3,24.6s0,0,0,0c0,0,0,0,0,0h0s0,0,0,0Z"/>
    <path class="cls-176" d="M70.4,24.6s0,0,0,0c0,0,0,0,0,0,0,0,0,0,0,0,0,0,0,0,0,0Z"/>
    <path class="cls-62" d="M59.4,24.6s0,0,0,0c0,0,0,0,0,0h0s0,0,0,0Z"/>
    <path class="cls-18" d="M59.6,24.4s0,0,0,0c0,0,0,0,0,0h0s0,0,0,0c0,0,0,0,0,0Z"/>
    <path class="cls-217" d="M43.5,23.6s0,0,0,0c0,0,0,0,0,0h0Z"/>
    <path class="cls-305" d="M54.1,23.1s0,0,0,0c0,0,0,0,0,0,0,0,0,0,0,0h0s0,0,0,0c0,0,0,0,0,0Z"/>
    <path class="cls-240" d="M50.9,7.3s0,0,0,0c0,0,0,0,0,0Z"/>
    <path class="cls-271" d="M54,25.2s0,0,0,0c0,0,0,0,0,0,0,0,0,0,0,0,0,0,0,0,0,0Z"/>
    <path class="cls-219" d="M53.8,7.7s0,0,0,0c0,0,0,0,0,0,0,0,0,0,0,0,0,0,0,0,0,0h0Z"/>
    <path class="cls-166" d="M51.8,7.2s0,0,0,0c0,0,0,0,0,0Z"/>
    <path class="cls-34" d="M59.5,24.5s0,0,0,0c0,0,0,0,0,0,0,0,0,0,0,0,0,0,0,0,0,0Z"/>
    <path class="cls-30" d="M70.7,24.7s0,0,0,0c0,0,0,0,0,0,0,0,0,0,0,0,0,0,0,0,0,0Z"/>
    <path class="cls-261" d="M54.7,31.5s0,0,0,0c0,0,0,0,0,0,0,0,0,0,0,0Z"/>
    <path class="cls-90" d="M38.2,18.6s0,0,0,0c0,0,0,0,0,0,0,0,0,0,0,0Z"/>
    <path class="cls-113" d="M54.1,11.7s0,0,0,0c0,0,0,0,0,0,0,0,0,0,0,0h0s0,0,0,0c0,0,0,0,0,0Z"/>
    <path class="cls-247" d="M26.5,18.5s0,0,0,0c0,0,0,0,0,0h0s0,0,0,0Z"/>
    <path class="cls-78" d="M59.2,24.7s0,0,0,0c0,0,0,0,0,0,0,0,0,0,0,0,0,0,0,0,0,0Z"/>
    <path class="cls-101" d="M49.8,5.7s0,0,0,0c0,0,0,0,0,0,0,0,0,0,0,0Z"/>
    <path class="cls-164" d="M43.6,23.5s0,0,0,0c0,0,0,0,0,0,0,0,0,0,0,0,0,0,0,0,0,0Z"/>
    <path class="cls-333" d="M26.6,18.4s0,0,0,0c0,0,0,0,0,0,0,0,0,0,0,0h0Z"/>
    <path class="cls-320" d="M26.7,18.3s0,0,0,0c0,0,0,0,0,0,0,0,0,0,0,0,0,0,0,0,0,0Z"/>
    <path class="cls-5" d="M63.9,18.8s0,0,0,0c0,0,0,0,0,0Z"/>
    <path class="cls-185" d="M49.8,5.6s0,0,0,0c0,0,0,0,0,0,0,0,0,0,0,0Z"/>
    <path class="cls-31" d="M26.8,18.2s0,0,0,0c0,0,0,0,0,0,0,0,0,0,0,0,0,0,0,0,0,0Z"/>
    <path class="cls-141" d="M26.9,18.1h0s0,0,0,0c0,0,0,0,0,0,0,0,0,0,0,0Z"/>
    <path class="cls-323" d="M38,18.4s0,0,0,0c0,0,0,0,0,0,0,0,0,0,0,0,0,0,0,0,0,0Z"/>
    <path class="cls-260" d="M32.1,47.9c0-.4,0-.8,0-1.3,0-.2,0-.2.2-.2.4,0,.9,0,1.3,0,.6,0,.9.5,1,1.1,0,.3,0,.7,0,1,0,.3-.3.5-.6.6-.2,0-.4.1-.5.1-.4,0-.7,0-1.1,0-.1,0-.1,0-.1-.2,0-.4,0-.9,0-1.3Z"/>
    <path class="cls-260" d="M32.1,44.1c0-.4,0-.8,0-1.2,0-.2,0-.2.2-.2.4,0,.7,0,1.1,0,.6,0,.9.4,1,1,0,.3,0,.6,0,.9,0,.4-.3.7-.9.7-.4,0-.8,0-1.2,0-.1,0-.1,0-.1-.2,0,0,0,0,0,0,0-.4,0-.8,0-1.2Z"/>
    <path class="cls-260" d="M38.2,44.1c0-.4,0-.8,0-1.2,0-.2,0-.2.2-.2.4,0,.8,0,1.2,0,.6,0,.8.3.9.9,0,.3,0,.7,0,1,0,.3-.3.5-.6.6-.2,0-.5.1-.7.1-.3,0-.6,0-.8,0-.1,0-.1,0-.1-.1,0-.4,0-.8,0-1.2Z"/>
    <path class="cls-260" d="M45.5,43.1c.3,1.4.6,2.9.9,4.3,0,0,0,0-.1,0-.5,0-1,0-1.5,0-.2,0-.2,0-.1-.2.3-1.4.6-2.7.9-4.1,0,0,0,0,0,0h0s0,0,0,0Z"/>
    <path class="cls-36" d="M45.5,43.1s0,0,0,0c0,0,0,0,0,0,0,0,0,0,0,0Z"/>
    <path class="cls-36" d="M45.5,43.1s0,0,0,0c0,0,0,0,0,0Z"/>
    <path class="cls-260" d="M37.9,40.3c-.6,0-1.3,0-1.9,0-.2,0-.2,0-.2-.2,0-.8,0-1.6,0-2.5,0-1,.8-1.9,1.9-2,1,0,2,.6,2.2,1.6,0,.2,0,.3,0,.5,0,.8,0,1.6,0,2.4,0,.2,0,.2-.2.2-.6,0-1.2,0-1.9,0Z"/>
    <path class="cls-260" d="M45.8,40.3c-.6,0-1.2,0-1.9,0-.2,0-.2,0-.2-.2,0-.8,0-1.6,0-2.4,0-1.1.7-1.9,1.7-2.1,1.1-.2,2.2.6,2.4,1.7,0,.1,0,.3,0,.4,0,.8,0,1.6,0,2.3,0,.2,0,.2-.2.2-.6,0-1.3,0-1.9,0Z"/>
    <path class="cls-260" d="M29.9,40.3c-.6,0-1.3,0-1.9,0-.2,0-.2,0-.2-.2,0-.8,0-1.6,0-2.4,0-1,.8-1.9,1.8-2,1-.1,2,.6,2.2,1.6,0,.2,0,.3,0,.5,0,.8,0,1.5,0,2.3,0,.2,0,.2-.2.2-.6,0-1.2,0-1.9,0Z"/>
    <path class="cls-260" d="M53.7,40.3c-.6,0-1.2,0-1.9,0-.2,0-.2,0-.2-.2,0-.8,0-1.6,0-2.4,0-1.1.8-1.9,1.9-2,1.1,0,2,.6,2.2,1.7,0,.1,0,.3,0,.4,0,.8,0,1.5,0,2.3,0,.2,0,.2-.2.2-.6,0-1.2,0-1.8,0Z"/>
    <path class="cls-20" d="M54.1,54c0-.2,0-.3,0-.5,0,0,0-.1.1-.1.2,0,.3,0,.5,0,.2,0,.4.2.4.4,0,.2,0,.3,0,.5,0,.2-.2.3-.3.3-.2,0-.4,0-.6,0,0,0-.1,0-.1-.1,0-.2,0-.3,0-.5Z"/>
    <path class="cls-216" d="M54.4,51.8s0,0,0,0c.6,0,.7.4.6.9,0,.1-.1.2-.3.2-.2,0-.3,0-.5,0,0,0-.1,0-.1-.1,0-.3,0-.6,0-.9,0,0,0,0,0,0,0,0,.1,0,.2,0h0Z"/>
    <path class="cls-324" d="M57.9,52.4c0-.1,0-.3,0-.4,0,0,0-.1.1-.1.2,0,.3,0,.5,0,.2,0,.3.1.4.4,0,0,0,0,0,0,0,.4,0,.6-.6.7-.4,0-.4,0-.4-.4,0,0,0-.2,0-.2Z"/>
    <path class="cls-20" d="M66.1,51.8c.1,0,.2,0,.3,0,0,0,.1,0,.2,0,.2.2.1.5.1.7,0,.2-.2.3-.4.3-.2,0-.3,0-.5,0,0,0-.1,0-.1-.1,0-.3,0-.6,0-.9,0,0,0-.1.1-.1,0,0,.1,0,.2,0Z"/>
    <path class="cls-324" d="M62.3,52c.1.6.2,1.2.4,1.7h-.8c.1-.6.3-1.2.4-1.7,0,0,0,0,0,0Z"/>
    <path class="cls-88" d="M62.3,52s0,0,0,0c0,0,0,0,0,0,0,0,0,0,0,0Z"/>
    <path class="cls-83" d="M51.7,7.3s0,0,0,0c0,0,0,0,0,0,0,0,0,0,0,0Z"/>
    <path class="cls-260" d="M50.4,13.4c0-.6,0-1.1,0-1.7,0-.2,0-.3,0-.5,0-.2.2-.3.4-.4.3-.2.8,0,1,.3,0,0,0,.1,0,.2,0,.6,0,1.3,0,1.9,0,.1,0,.2-.1.1-.4,0-.9,0-1.3,0Z"/>
    <path class="cls-260" d="M50.4,24.8c0-.6,0-1.1,0-1.7,0-.2,0-.3,0-.5,0-.2.2-.3.3-.4.3-.2.8-.1,1,.2,0,0,0,.1,0,.2,0,.6,0,1.3,0,1.9,0,0,0,.2-.1.2-.4,0-.9,0-1.3,0Z"/>
    <path class="cls-324" d="M48.8,25s0,0-.1,0c0,0-.1,0-.2,0,0,0,0,0,0,0,0,0,0,0,0,0,0,0-.1,0-.2,0,0-.7,0-1.4,0-2.1,0,0,0,0,0-.1,0,0,0-.2.2-.2.1,0,.2,0,.3,0,0,.7,0,1.4,0,2.1,0,0,0,0,0,0Z"/>
    <path class="cls-324" d="M48.4,13.8s0,0,0,0c0-.7,0-1.3,0-2,0,0,0-.1,0-.2,0,0,0-.2.2-.2.1,0,.2,0,.3,0,0,.7,0,1.4,0,2.2,0,0,0,0,0,0,0,0,0,0,0,0,0,0-.2,0-.2.1,0,0,0,0,0,0Z"/>
    <path class="cls-260" d="M54.1,11.7s0,0,0,0c0,.6,0,1.2,0,1.7,0,0,0,.2,0,.3,0,0,0,0-.1,0,0,0,0,0-.1,0,0,0,0,0-.1,0,0,0-.1,0-.2,0,0-.6,0-1.2,0-1.8,0,0,0-.2,0-.3,0,0,0,0,0,0,.1-.1.2-.1.4,0,0,0,.1.1.1.2,0,0,0,0,0,.1Z"/>
    <path class="cls-234" d="M53.5,11.4s0,0,0,0c0,0,0,0,0,0,0,0,0,0,0,0Z"/>
    <path class="cls-260" d="M54,25.2s0,0,0,0c0,0,0,0-.1,0,0,0,0,0,0,0,0,0,0,0,0,0,0,0,0,0,0,0,0,0,0,0,0,0,0-.7,0-1.4,0-2,0,0,0,0,0,0,.1-.1.2-.1.4,0,0,0,.1.1.1.2,0,0,0,0,0,.1,0,0,0,0,0,0,0,.6,0,1.1,0,1.7,0,.1,0,.2,0,.3,0,0,0,0,0,0Z"/>
    <path class="cls-199" d="M53.5,22.8s0,0,0,0c0,0,0,0,0,0,0,0,0,0,0,0Z"/>
    <path class="cls-137" d="M53.5,24.9s0,0,0,0c0,0,0,0,0,0,0,0,0,0,0,0Z"/>
    <polygon class="cls-39" points="27.1 17.9 27.1 17.9 27.1 17.9 27.1 17.9"/>
    <path class="cls-9" d="M59.8,24.3h0s0,0,0,0c0,0,0,0,0,0Z"/>
    <path class="cls-45" d="M48.5,25.2c0,0,0,0,0,0,0,0,0,0,0,0,0,0,0,0,0,0Z"/>
  </g>
</svg>