<?xml version="1.0" encoding="UTF-8"?>
<svg id="Layer_1" data-name="Layer 1" xmlns="http://www.w3.org/2000/svg" version="1.1" xmlns:xlink="http://www.w3.org/1999/xlink" viewBox="0 0 269 56">
  <defs>
    <style>
      .cls-1 {
        fill: url(#linear-gradient);
      }

      .cls-1, .cls-2, .cls-3, .cls-4 {
        stroke-width: 0px;
      }

      .cls-2, .cls-3, .cls-5 {
        display: none;
      }

      .cls-2, .cls-4 {
        fill: #fff;
      }

      .cls-3 {
        fill: #ef305e;
      }
    </style>
    <linearGradient id="linear-gradient" x1="28.5" y1="1048.6" x2="40" y2="1051.6" gradientTransform="translate(0 -1022)" gradientUnits="userSpaceOnUse">
      <stop offset="0" stop-color="#000" stop-opacity=".2"/>
      <stop offset=".9" stop-color="#fff" stop-opacity="0"/>
    </linearGradient>
  </defs>
  <path class="cls-2" d="M93.1,42h5.4l1.3-16.7c0-2,0-4.7,0-4.7h0s.9,2.9,1.6,4.7l4.8,11.5h4.7l4.8-11.5c.7-1.7,1.6-4.6,1.6-4.6h0v4.6l1.3,16.7h5.4l-2.4-29.8h-5.8l-5.8,14.7c-.7,1.8-1.5,4.4-1.5,4.4h0s-.8-2.6-1.5-4.4l-5.8-14.7h-5.8l-2.4,29.8h.1ZM128.5,31.3c0,6.1,4.4,11.2,11.5,11.2s8.6-3.1,8.6-3.1l-2.1-3.8s-2.7,2.4-6.2,2.4-6.1-1.9-6.4-5.7h14.8s.1-1.4.1-2.1c0-5.7-3.3-10.2-9.5-10.2s-10.9,4.6-10.9,11.2h0ZM134.2,28.6c.5-2.8,2.4-4.5,5.1-4.5s4.2,1.6,4.2,4.5h-9.4,0ZM154.2,34.1c0,7.2,5.9,8.1,8.9,8.1s1.6,0,1.6,0v-4.7h-1c-1.5,0-4.2-.5-4.2-4v-8.3h4.9v-4.2h-4.9v-6.2h-5.2v6.2h-2.9v4.2h2.8v9h0ZM169.1,42h5.3v-8.5c0-1.3.1-2.4.5-3.5,1-3.2,3.6-4.5,5.8-4.5s1.3,0,1.3,0v-5.2h-1c-3.3,0-5.8,2.4-6.8,5.5h0v-5.2h-5.1v21.4ZM184,31.3c0,6.6,5.2,11.2,11.8,11.2s11.8-4.6,11.8-11.2-5.2-11.2-11.8-11.2-11.8,4.7-11.8,11.2ZM189.4,31.3c0-3.9,2.9-6.7,6.4-6.7s6.3,2.7,6.3,6.7-2.9,6.7-6.3,6.7-6.4-2.7-6.4-6.7ZM211.9,42h5.3v-9.8c0-1,0-2,.4-2.9.8-2.6,2.9-4.4,5.8-4.4s3.4,1.8,3.4,4.4v12.7h5.3v-13.8c0-5.7-2.7-8.1-7.4-8.1s-6.7,2.6-7.6,4.5h0v-4h-5.1v21.4h0ZM237.6,16.9h5.3v-4.7h-5.3v4.7ZM237.6,42h5.3v-21.4h-5.3v21.4ZM247.3,31.3c0,6.2,4.5,11.2,11.6,11.2s8.8-3.5,8.8-3.5l-2.1-3.8s-2.7,2.7-6.3,2.7-6.7-3.1-6.7-6.7,2.6-6.6,6.5-6.6,5.6,2.3,5.6,2.3l2.4-3.7s-2.6-3.2-8.2-3.2-11.6,5.1-11.6,11.2h0Z"/>
  <path class="cls-3" d="M61.1,2.8l15.2,47.4c.8,2.6-1.1,5.2-3.8,5.2h-11.2c-1.7,0-3.3-1.1-3.8-2.8L42.5,5.2c-.8-2.6,1.1-5.2,3.8-5.2h11c1.7,0,3.3,1.1,3.8,2.8Z"/>
  <g class="cls-5">
    <path class="cls-4" d="M46.5,37.8L35.8,3.4c-.6-2.1-2.5-3.4-4.7-3.4s-4.8,2.1-4.9,4.7l-1.3,25.7c0,.9,0,1.8.3,2.7l5.8,19.5c.5,1.7,2.1,2.9,3.8,2.9h5.4c1.7,0,3.3-1.1,3.8-2.8l2.4-7.5c.7-2.3.8-4.9,0-7.2v-.2Z"/>
    <path class="cls-1" d="M46.5,37.8L35.8,3.4c-.6-2.1-2.5-3.4-4.7-3.4s-4.8,2.1-4.9,4.7l-1.3,25.7c0,.9,0,1.8.3,2.7l5.8,19.5c.5,1.7,2.1,2.9,3.8,2.9h5.4c1.7,0,3.3-1.1,3.8-2.8l2.4-7.5c.7-2.3.8-4.9,0-7.2v-.2Z"/>
  </g>
  <path class="cls-3" d="M20.3,0h11c2.7,0,4.6,2.6,3.8,5.2l-14.9,47.8c-.5,1.7-2.1,2.8-3.8,2.8H5.4c-2.7,0-4.6-2.6-3.8-5.2L16.5,2.8c.5-1.7,2.1-2.8,3.8-2.8Z"/>
  <g>
    <path class="cls-4" d="M18.9,8.6c0,4.2-3.3,7.6-7.7,7.6h-3.3v7H2.8V1h8.4c4.4,0,7.7,3.3,7.7,7.6ZM13.9,8.6c0-1.6-1.1-2.9-2.6-2.9h-3.3v5.7h3.3c1.5,0,2.6-1.3,2.6-2.9h0Z"/>
    <path class="cls-4" d="M28.4,19.3c1.3,0,2.4-.5,3-1.1l3.8,2.2c-1.5,2.2-3.9,3.2-6.9,3.2-5.4,0-8.7-3.7-8.7-8.4s3.4-8.4,8.4-8.4,8,3.6,8,8.4,0,1.3-.2,1.9h-11.2c.6,1.6,2.1,2.2,3.8,2.2h.1,0ZM31.3,13.6c-.5-1.8-1.9-2.5-3.3-2.5s-3,.9-3.4,2.5h6.8-.1Z"/>
    <path class="cls-4" d="M48.1,7.1v5.4c-1.9-.3-4.7.5-4.7,3.6v7.1h-4.7V7.3h4.7v2.9c.7-2.1,2.8-3.1,4.7-3.1Z"/>
    <path class="cls-4" d="M67.3,15.2c0,4.7-3.4,8.4-7.6,8.4s-3.7-.7-4.7-1.9v7.8h-4.7V7.3h4.7v1.5c1-1.1,2.6-1.9,4.7-1.9,4.1,0,7.6,3.7,7.6,8.4h0ZM62.6,15.2c0-2.4-1.6-3.9-3.8-3.9s-3.8,1.5-3.8,3.9,1.6,3.9,3.8,3.9,3.8-1.5,3.8-3.9Z"/>
    <path class="cls-4" d="M84.9,7.3v15.8h-4.7v-1.5c-.8,1.1-2.4,1.9-4.5,1.9-3.2,0-5.8-2.3-5.8-6.5V7.3h4.7v8.9c0,1.9,1.3,2.9,2.8,2.9s3-1,3-3.2V7.3h4.7-.2Z"/>
    <path class="cls-4" d="M100.5,18.4c0,3.7-3.2,5.2-6.5,5.2s-5.5-1.1-6.8-3.8l4.1-2.3c.5,1.1,1.3,1.8,2.6,1.8s1.7-.3,1.7-1c0-1.7-7.8-.8-7.8-6.3s2.9-5.2,6.2-5.2,4.8,1.1,6.2,3.3l-4,2.2c-.5-.8-1-1.4-2.1-1.4s-1.4.3-1.4.9c0,1.8,7.8.6,7.8,6.4h0v.2Z"/>
    <path class="cls-4" d="M108.4,11.9v5.6c0,1.4,1.1,1.5,3.2,1.4v4.2c-6.2.7-8-1.3-8-5.6v-5.6h-2.5v-4.6h2.5v-3l4.7-1.4v4.5h3.2v4.6h-3.2.1Z"/>
    <path class="cls-4" d="M130.2,7.3v15.8h-4.7v-1.5c-1,1.1-2.6,1.9-4.7,1.9-4.1,0-7.6-3.7-7.6-8.4s3.4-8.4,7.6-8.4,3.7.7,4.7,1.9v-1.5h4.7v.2ZM125.5,15.2c0-2.4-1.6-3.9-3.8-3.9s-3.8,1.5-3.8,3.9,1.6,3.9,3.8,3.9,3.8-1.5,3.8-3.9Z"/>
    <path class="cls-4" d="M143.5,23.1l-5-7v7h-4.7V1h4.7v13.2l4.7-6.9h5.5l-5.7,7.9,5.8,7.9h-5.4.1,0Z"/>
    <path class="cls-4" d="M165.7,7.3v15.8h-4.7v-1.5c-1,1.1-2.6,1.9-4.7,1.9-4.1,0-7.6-3.7-7.6-8.4s3.4-8.4,7.6-8.4,3.7.7,4.7,1.9v-1.5h4.7v.2ZM161,15.2c0-2.4-1.6-3.9-3.8-3.9s-3.8,1.5-3.8,3.9,1.6,3.9,3.8,3.9,3.8-1.5,3.8-3.9Z"/>
    <path class="cls-4" d="M185.4,7.3v15.8h-4.7v-1.5c-1,1.1-2.6,1.9-4.7,1.9-4.1,0-7.6-3.7-7.6-8.4s3.4-8.4,7.6-8.4,3.7.7,4.7,1.9v-1.5h4.7v.2ZM180.7,15.2c0-2.4-1.6-3.9-3.8-3.9s-3.8,1.5-3.8,3.9,1.6,3.9,3.8,3.9,3.8-1.5,3.8-3.9Z"/>
    <path class="cls-4" d="M204,13.5v9.7h-4.7v-8.9c0-1.9-1.3-2.9-2.8-2.9s-3,1-3,3.2v8.6h-4.7V7.4h4.7v1.5c.8-1.1,2.4-1.9,4.5-1.9,3.2,0,5.8,2.3,5.8,6.5h.2Z"/>
    <path class="cls-4" d="M7.9,27.7v22.1H2.8v-22.1h5.1Z"/>
    <path class="cls-4" d="M28.5,41.9c0,4.7-3.4,8.4-7.6,8.4s-3.7-.7-4.7-1.9v1.5h-4.7v-22.1h4.7v7.8c1-1.1,2.6-1.9,4.7-1.9,4.1,0,7.6,3.7,7.6,8.4v-.2ZM23.8,41.9c0-2.4-1.6-3.9-3.8-3.9s-3.8,1.5-3.8,3.9,1.6,3.9,3.8,3.9,3.8-1.5,3.8-3.9Z"/>
    <path class="cls-4" d="M40.7,33.8v5.4c-1.9-.3-4.7.5-4.7,3.6v7.1h-4.7v-15.8h4.7v2.9c.7-2.1,2.8-3.1,4.7-3.1h0Z"/>
    <path class="cls-4" d="M58.6,34.1v15.8h-4.7v-1.5c-1,1.1-2.6,1.9-4.7,1.9-4.1,0-7.6-3.7-7.6-8.4s3.4-8.4,7.6-8.4,3.7.7,4.7,1.9v-1.5h4.7v.2ZM53.9,41.9c0-2.4-1.6-3.9-3.8-3.9s-3.8,1.5-3.8,3.9,1.6,3.9,3.8,3.9,3.8-1.5,3.8-3.9Z"/>
    <path class="cls-4" d="M77.2,40.2v9.7h-4.7v-8.9c0-1.9-1.3-2.9-2.8-2.9s-3,1-3,3.2v8.6h-4.7v-22.1h4.7v7.8c.8-1.1,2.4-1.9,4.5-1.9,3.2,0,5.8,2.3,5.8,6.5h.2Z"/>
    <path class="cls-4" d="M80,29.9c0-1.5,1.3-2.9,2.9-2.9s2.9,1.3,2.9,2.9-1.3,2.9-2.9,2.9-2.9-1.3-2.9-2.9ZM80.4,34.1h4.7v15.8h-4.7v-15.8Z"/>
    <path class="cls-4" d="M112.3,40.2v9.7h-4.7v-9.3c0-1.6-.8-2.6-2.3-2.6s-2.4,1.1-2.4,3v8.9h-4.7v-9.3c0-1.6-.8-2.6-2.3-2.6s-2.4,1.1-2.4,3v8.9h-4.7v-15.8h4.7v1.5c.7-1,2.1-1.9,4.2-1.9s3.2.8,4.1,2.1c.9-1.3,2.3-2.1,4.6-2.1,3.7,0,6,2.6,6,6.5,0,0,0,0,0,0Z"/>
    <path class="cls-4" d="M130.2,34.1l-5.4,15.4c-1.7,5-4.6,7-8.9,6.8v-4.5c2.2,0,3.2-.7,3.9-2.6l-6.3-15h5.2l3.6,9.6,3-9.6h5,0Z"/>
  </g>
</svg>